%TF.GenerationSoftware,KiCad,Pcbnew,8.0.9-8.0.9-0~ubuntu24.04.1*%
%TF.CreationDate,2025-04-02T15:18:24+09:00*%
%TF.ProjectId,ServoDriver,53657276-6f44-4726-9976-65722e6b6963,rev?*%
%TF.SameCoordinates,Original*%
%TF.FileFunction,Copper,L2,Bot*%
%TF.FilePolarity,Positive*%
%FSLAX46Y46*%
G04 Gerber Fmt 4.6, Leading zero omitted, Abs format (unit mm)*
G04 Created by KiCad (PCBNEW 8.0.9-8.0.9-0~ubuntu24.04.1) date 2025-04-02 15:18:24*
%MOMM*%
%LPD*%
G01*
G04 APERTURE LIST*
G04 Aperture macros list*
%AMRoundRect*
0 Rectangle with rounded corners*
0 $1 Rounding radius*
0 $2 $3 $4 $5 $6 $7 $8 $9 X,Y pos of 4 corners*
0 Add a 4 corners polygon primitive as box body*
4,1,4,$2,$3,$4,$5,$6,$7,$8,$9,$2,$3,0*
0 Add four circle primitives for the rounded corners*
1,1,$1+$1,$2,$3*
1,1,$1+$1,$4,$5*
1,1,$1+$1,$6,$7*
1,1,$1+$1,$8,$9*
0 Add four rect primitives between the rounded corners*
20,1,$1+$1,$2,$3,$4,$5,0*
20,1,$1+$1,$4,$5,$6,$7,0*
20,1,$1+$1,$6,$7,$8,$9,0*
20,1,$1+$1,$8,$9,$2,$3,0*%
G04 Aperture macros list end*
%TA.AperFunction,ComponentPad*%
%ADD10C,1.600000*%
%TD*%
%TA.AperFunction,ComponentPad*%
%ADD11O,1.600000X1.600000*%
%TD*%
%TA.AperFunction,ComponentPad*%
%ADD12O,1.700000X1.700000*%
%TD*%
%TA.AperFunction,ComponentPad*%
%ADD13R,1.700000X1.700000*%
%TD*%
%TA.AperFunction,ComponentPad*%
%ADD14C,2.000000*%
%TD*%
%TA.AperFunction,ComponentPad*%
%ADD15R,1.600000X1.600000*%
%TD*%
%TA.AperFunction,ComponentPad*%
%ADD16C,1.400000*%
%TD*%
%TA.AperFunction,ComponentPad*%
%ADD17RoundRect,0.770000X0.980000X0.980000X-0.980000X0.980000X-0.980000X-0.980000X0.980000X-0.980000X0*%
%TD*%
%TA.AperFunction,ComponentPad*%
%ADD18C,3.500000*%
%TD*%
%TA.AperFunction,ComponentPad*%
%ADD19C,1.800000*%
%TD*%
%TA.AperFunction,ComponentPad*%
%ADD20R,1.800000X1.800000*%
%TD*%
%TA.AperFunction,ComponentPad*%
%ADD21RoundRect,0.250000X-0.600000X-0.750000X0.600000X-0.750000X0.600000X0.750000X-0.600000X0.750000X0*%
%TD*%
%TA.AperFunction,ComponentPad*%
%ADD22O,1.700000X2.000000*%
%TD*%
%TA.AperFunction,Conductor*%
%ADD23C,0.500000*%
%TD*%
%TA.AperFunction,Conductor*%
%ADD24C,1.000000*%
%TD*%
%TA.AperFunction,Conductor*%
%ADD25C,2.000000*%
%TD*%
G04 APERTURE END LIST*
D10*
%TO.P,0.1\u03BCF,1*%
%TO.N,Net-(U1-VO)*%
X105000000Y-130000000D03*
%TO.P,0.1\u03BCF,2*%
%TO.N,GND*%
X102500000Y-130000000D03*
%TD*%
%TO.P,1,1*%
%TO.N,+5V*%
X98000000Y-115000000D03*
D11*
%TO.P,1,2*%
%TO.N,Net-(U1-VO)*%
X98000000Y-125160000D03*
%TD*%
D10*
%TO.P,0.33\u03BCF,1*%
%TO.N,batt_in*%
X117000000Y-140000000D03*
%TO.P,0.33\u03BCF,2*%
%TO.N,GND*%
X114500000Y-140000000D03*
%TD*%
%TO.P,0.1\u03BCF,1*%
%TO.N,Net-(U5-VO)*%
X117000000Y-130000000D03*
%TO.P,0.1\u03BCF,2*%
%TO.N,GND*%
X114500000Y-130000000D03*
%TD*%
%TO.P,0.1\u03BCF,1*%
%TO.N,+5V*%
X127400000Y-127625000D03*
%TO.P,0.1\u03BCF,2*%
%TO.N,GND*%
X129900000Y-127625000D03*
%TD*%
D12*
%TO.P,J2,2,Pin_2*%
%TO.N,+3.3V*%
X123875000Y-98715000D03*
D13*
%TO.P,J2,1,Pin_1*%
%TO.N,External_3.3V*%
X123875000Y-96175000D03*
%TD*%
D11*
%TO.P,330,2*%
%TO.N,Net-(D2-A)*%
X99970000Y-96475000D03*
D10*
%TO.P,330,1*%
%TO.N,+5V*%
X110130000Y-96475000D03*
%TD*%
%TO.P,1,1*%
%TO.N,+5V*%
X108000000Y-115000000D03*
D11*
%TO.P,1,2*%
%TO.N,Net-(U5-VO)*%
X108000000Y-125160000D03*
%TD*%
D10*
%TO.P,1,1*%
%TO.N,+5V*%
X102000000Y-115000000D03*
D11*
%TO.P,1,2*%
%TO.N,Net-(U1-VO)*%
X102000000Y-125160000D03*
%TD*%
%TO.P,10k,2*%
%TO.N,+3.3V*%
X131430000Y-101660000D03*
D10*
%TO.P,10k,1*%
%TO.N,NRST*%
X131430000Y-111820000D03*
%TD*%
D13*
%TO.P,J3,1,Pin_1*%
%TO.N,External_3.3V*%
X116000000Y-87000000D03*
D12*
%TO.P,J3,2,Pin_2*%
%TO.N,SWDIO*%
X118540000Y-87000000D03*
%TO.P,J3,3,Pin_3*%
%TO.N,SWCLK*%
X121080000Y-87000000D03*
%TO.P,J3,4,Pin_4*%
%TO.N,GND*%
X123620000Y-87000000D03*
%TO.P,J3,5,Pin_5*%
%TO.N,NRST*%
X126160000Y-87000000D03*
%TD*%
D10*
%TO.P,0.1\u03BCF,2*%
%TO.N,External_3.3V*%
X131500000Y-93300000D03*
%TO.P,0.1\u03BCF,1*%
%TO.N,GND*%
X131500000Y-90800000D03*
%TD*%
%TO.P,1,1*%
%TO.N,+5V*%
X108000000Y-102000000D03*
D11*
%TO.P,1,2*%
%TO.N,Net-(U5-VO)*%
X108000000Y-112160000D03*
%TD*%
D10*
%TO.P,1,1*%
%TO.N,+5V*%
X112000000Y-115000000D03*
D11*
%TO.P,1,2*%
%TO.N,Net-(U5-VO)*%
X112000000Y-125160000D03*
%TD*%
D14*
%TO.P,U4,1,Vin*%
%TO.N,+5V*%
X120950000Y-108625000D03*
%TO.P,U4,2,GND*%
%TO.N,GND*%
X120950000Y-106125000D03*
%TO.P,U4,3,Vout*%
%TO.N,+3.3V*%
X120950000Y-103625000D03*
%TD*%
D10*
%TO.P,120,1*%
%TO.N,CAN_H*%
X128355000Y-144725000D03*
D11*
%TO.P,120,2*%
%TO.N,CAN_L*%
X118195000Y-144725000D03*
%TD*%
%TO.P,330,2*%
%TO.N,Net-(D3-A)*%
X117800000Y-89170000D03*
D10*
%TO.P,330,1*%
%TO.N,+3.3V*%
X117800000Y-99330000D03*
%TD*%
D15*
%TO.P,U2,1,TXD*%
%TO.N,TX*%
X132430000Y-130100000D03*
D11*
%TO.P,U2,2,VSS*%
%TO.N,GND*%
X129890000Y-130100000D03*
%TO.P,U2,3,VDD*%
%TO.N,+5V*%
X127350000Y-130100000D03*
%TO.P,U2,4,RXD*%
%TO.N,RX*%
X124810000Y-130100000D03*
%TO.P,U2,5,Vio*%
%TO.N,+3.3V*%
X124810000Y-137720000D03*
%TO.P,U2,6,CANL*%
%TO.N,CAN_L*%
X127350000Y-137720000D03*
%TO.P,U2,7,CANH*%
%TO.N,CAN_H*%
X129890000Y-137720000D03*
%TO.P,U2,8,STBY*%
%TO.N,GND*%
X132430000Y-137720000D03*
%TD*%
D16*
%TO.P,J4,*%
%TO.N,*%
X114300000Y-155625000D03*
X103300000Y-155625000D03*
D17*
%TO.P,J4,1,Pin_1*%
%TO.N,GND*%
X106300000Y-145625000D03*
D18*
%TO.P,J4,2,Pin_2*%
%TO.N,batt_in*%
X111300000Y-145625000D03*
%TD*%
D19*
%TO.P,3.3V,2,A*%
%TO.N,Net-(D3-A)*%
X121080000Y-91050000D03*
D20*
%TO.P,3.3V,1,K*%
%TO.N,GND*%
X123620000Y-91050000D03*
%TD*%
D10*
%TO.P,1,1*%
%TO.N,+5V*%
X102000000Y-102000000D03*
D11*
%TO.P,1,2*%
%TO.N,Net-(U1-VO)*%
X102000000Y-112160000D03*
%TD*%
D10*
%TO.P,1,1*%
%TO.N,+5V*%
X112000000Y-102000000D03*
D11*
%TO.P,1,2*%
%TO.N,Net-(U5-VO)*%
X112000000Y-112160000D03*
%TD*%
D10*
%TO.P,330,1*%
%TO.N,Net-(D1-K)*%
X117825000Y-124725000D03*
D11*
%TO.P,330,2*%
%TO.N,GND*%
X117825000Y-114565000D03*
%TD*%
D20*
%TO.P,5V,1,K*%
%TO.N,GND*%
X99975000Y-90750000D03*
D19*
%TO.P,5V,2,A*%
%TO.N,Net-(D2-A)*%
X99975000Y-93290000D03*
%TD*%
D13*
%TO.P,J5,1,Pin_1*%
%TO.N,GND*%
X104975000Y-87000000D03*
D12*
%TO.P,J5,2,Pin_2*%
%TO.N,+5V*%
X107515000Y-87000000D03*
%TO.P,J5,3,Pin_3*%
%TO.N,Signal*%
X110055000Y-87000000D03*
%TD*%
D10*
%TO.P,0.33\u03BCF,1*%
%TO.N,batt_in*%
X105000000Y-140000000D03*
%TO.P,0.33\u03BCF,2*%
%TO.N,GND*%
X102500000Y-140000000D03*
%TD*%
%TO.P,0.1\u03BCF,1*%
%TO.N,GND*%
X132910000Y-124600000D03*
%TO.P,0.1\u03BCF,2*%
%TO.N,NRST*%
X130410000Y-124600000D03*
%TD*%
%TO.P,3.3\u03BCF,1*%
%TO.N,+3.3V*%
X125300000Y-103600000D03*
%TO.P,3.3\u03BCF,2*%
%TO.N,GND*%
X125300000Y-106100000D03*
%TD*%
%TO.P,0.1\u03BCF,1*%
%TO.N,+3.3V*%
X124825000Y-140225000D03*
%TO.P,0.1\u03BCF,2*%
%TO.N,GND*%
X122325000Y-140225000D03*
%TD*%
D20*
%TO.P,mc,1,K*%
%TO.N,Net-(D1-K)*%
X121930000Y-124725000D03*
D19*
%TO.P,mc,2,A*%
%TO.N,check_led*%
X124470000Y-124725000D03*
%TD*%
D10*
%TO.P,1,1*%
%TO.N,+5V*%
X98000000Y-102000000D03*
D11*
%TO.P,1,2*%
%TO.N,Net-(U1-VO)*%
X98000000Y-112160000D03*
%TD*%
D21*
%TO.P,J1,1,Pin_1*%
%TO.N,CAN_L*%
X120125000Y-149425000D03*
D22*
%TO.P,J1,2,Pin_2*%
%TO.N,CAN_H*%
X122625000Y-149425000D03*
%TD*%
D23*
%TO.N,GND*%
X121330000Y-92750000D02*
X123615000Y-92750000D01*
D24*
X122325000Y-134775000D02*
X129875000Y-134775000D01*
X132430000Y-135280000D02*
X132430000Y-137720000D01*
D23*
X117840000Y-110610000D02*
X122870000Y-110610000D01*
D24*
X129900000Y-127625000D02*
X129900000Y-130090000D01*
D23*
X123620000Y-91050000D02*
X123620000Y-92745000D01*
X121340000Y-101530000D02*
X121330000Y-101540000D01*
X134250000Y-137725000D02*
X133575000Y-137725000D01*
X129450000Y-106100000D02*
X129475000Y-106075000D01*
X123620000Y-80980000D02*
X123625000Y-80975000D01*
X122840000Y-101530000D02*
X121340000Y-101530000D01*
D24*
X132425000Y-135275000D02*
X132430000Y-135280000D01*
D23*
X133575000Y-137725000D02*
X133570000Y-137720000D01*
X129475000Y-92750000D02*
X123625000Y-92750000D01*
D24*
X122325000Y-140225000D02*
X122325000Y-134775000D01*
D23*
X117825000Y-110625000D02*
X117840000Y-110610000D01*
X129475000Y-106075000D02*
X129475000Y-92750000D01*
X134240000Y-124600000D02*
X134250000Y-124590000D01*
D24*
X129900000Y-130090000D02*
X129890000Y-130100000D01*
D23*
X123625000Y-80975000D02*
X134250000Y-80975000D01*
X123620000Y-87000000D02*
X123620000Y-91050000D01*
D24*
X129890000Y-130100000D02*
X129890000Y-134760000D01*
D23*
X122870000Y-110610000D02*
X122870000Y-101560000D01*
X125300000Y-106100000D02*
X129450000Y-106100000D01*
X134250000Y-124590000D02*
X134250000Y-137725000D01*
X123620000Y-92745000D02*
X123625000Y-92750000D01*
D25*
X117875000Y-106125000D02*
X113775000Y-106125000D01*
D23*
X132910000Y-124600000D02*
X134240000Y-124600000D01*
X134250000Y-80975000D02*
X134250000Y-124590000D01*
X133570000Y-137720000D02*
X132430000Y-137720000D01*
D24*
X117825000Y-106175000D02*
X117875000Y-106125000D01*
X129875000Y-134775000D02*
X132425000Y-134775000D01*
D23*
X117825000Y-114565000D02*
X117825000Y-110625000D01*
X123615000Y-92750000D02*
X123620000Y-92745000D01*
X123620000Y-87000000D02*
X123620000Y-80980000D01*
D24*
X132425000Y-134775000D02*
X132425000Y-135275000D01*
D25*
X120950000Y-106125000D02*
X117875000Y-106125000D01*
D23*
X129475000Y-92750000D02*
X129450000Y-92725000D01*
X121330000Y-101540000D02*
X121330000Y-92750000D01*
X122870000Y-101560000D02*
X122840000Y-101530000D01*
D24*
X129890000Y-134760000D02*
X129875000Y-134775000D01*
%TO.N,+3.3V*%
X124825000Y-140225000D02*
X124825000Y-137735000D01*
D23*
X123875000Y-107520000D02*
X123875000Y-111425000D01*
X120575000Y-142050000D02*
X120575000Y-111450000D01*
X124825000Y-140225000D02*
X124825000Y-142050000D01*
D24*
X125335000Y-103565000D02*
X125300000Y-103600000D01*
X125300000Y-103600000D02*
X125300000Y-98750000D01*
X125235000Y-98715000D02*
X123875000Y-98715000D01*
X124825000Y-137735000D02*
X124810000Y-137720000D01*
D23*
X120600000Y-111425000D02*
X120575000Y-111450000D01*
X131230000Y-107520000D02*
X123875000Y-107520000D01*
D24*
X125300000Y-98750000D02*
X125250000Y-98700000D01*
D23*
X123875000Y-98715000D02*
X123875000Y-107520000D01*
X131430000Y-105109950D02*
X131440000Y-105119950D01*
D24*
X125250000Y-98700000D02*
X125235000Y-98715000D01*
D23*
X131440000Y-107310000D02*
X131230000Y-107520000D01*
X131430000Y-101660000D02*
X131430000Y-105109950D01*
X123875000Y-111425000D02*
X120600000Y-111425000D01*
X124825000Y-142050000D02*
X120575000Y-142050000D01*
X131440000Y-105119950D02*
X131440000Y-107310000D01*
%TO.N,NRST*%
X126180000Y-88900000D02*
X126180000Y-88610000D01*
X126180000Y-88610000D02*
X126160000Y-88590000D01*
X131430000Y-111820000D02*
X131430000Y-108330000D01*
X133540000Y-108310000D02*
X133550000Y-108320000D01*
X130410000Y-121450000D02*
X130400000Y-121440000D01*
X133550000Y-108320000D02*
X133550000Y-88900000D01*
X131430000Y-108330000D02*
X131410000Y-108310000D01*
X130410000Y-124600000D02*
X130410000Y-121450000D01*
X126160000Y-88590000D02*
X126160000Y-87000000D01*
X133530000Y-111820000D02*
X131430000Y-111820000D01*
X133550000Y-88900000D02*
X126180000Y-88900000D01*
X130400000Y-121440000D02*
X133530000Y-121440000D01*
X133530000Y-121440000D02*
X133530000Y-111820000D01*
X131410000Y-108310000D02*
X133540000Y-108310000D01*
%TD*%
%TA.AperFunction,Conductor*%
%TO.N,GND*%
G36*
X114943039Y-80520185D02*
G01*
X114988794Y-80572989D01*
X115000000Y-80624500D01*
X115000000Y-85585671D01*
X114980315Y-85652710D01*
X114927511Y-85698465D01*
X114919339Y-85701851D01*
X114907666Y-85706205D01*
X114907665Y-85706205D01*
X114792455Y-85792452D01*
X114792452Y-85792455D01*
X114706206Y-85907664D01*
X114706202Y-85907671D01*
X114655908Y-86042517D01*
X114649501Y-86102116D01*
X114649500Y-86102135D01*
X114649500Y-87897870D01*
X114649501Y-87897876D01*
X114655908Y-87957483D01*
X114706202Y-88092328D01*
X114706206Y-88092335D01*
X114792452Y-88207544D01*
X114792455Y-88207547D01*
X114907664Y-88293793D01*
X114907666Y-88293794D01*
X114907669Y-88293796D01*
X114919331Y-88298145D01*
X114975264Y-88340014D01*
X114999684Y-88405477D01*
X115000000Y-88414328D01*
X115000000Y-128626514D01*
X114980315Y-128693553D01*
X114927511Y-128739308D01*
X114858353Y-128749252D01*
X114843907Y-128746289D01*
X114726610Y-128714860D01*
X114726599Y-128714858D01*
X114500002Y-128695034D01*
X114499998Y-128695034D01*
X114273400Y-128714858D01*
X114273389Y-128714860D01*
X114053682Y-128773730D01*
X114053673Y-128773734D01*
X113847516Y-128869866D01*
X113847512Y-128869868D01*
X113774526Y-128920973D01*
X113774526Y-128920974D01*
X114453553Y-129600000D01*
X114447339Y-129600000D01*
X114345606Y-129627259D01*
X114254394Y-129679920D01*
X114179920Y-129754394D01*
X114127259Y-129845606D01*
X114100000Y-129947339D01*
X114100000Y-129953552D01*
X113420974Y-129274526D01*
X113420973Y-129274526D01*
X113369868Y-129347512D01*
X113369866Y-129347516D01*
X113273734Y-129553673D01*
X113273730Y-129553682D01*
X113214860Y-129773389D01*
X113214858Y-129773400D01*
X113195034Y-129999997D01*
X113195034Y-130000002D01*
X113214858Y-130226599D01*
X113214860Y-130226610D01*
X113273730Y-130446317D01*
X113273735Y-130446331D01*
X113369863Y-130652478D01*
X113420974Y-130725472D01*
X114100000Y-130046446D01*
X114100000Y-130052661D01*
X114127259Y-130154394D01*
X114179920Y-130245606D01*
X114254394Y-130320080D01*
X114345606Y-130372741D01*
X114447339Y-130400000D01*
X114453552Y-130400000D01*
X113774526Y-131079025D01*
X113847513Y-131130132D01*
X113847521Y-131130136D01*
X114053668Y-131226264D01*
X114053682Y-131226269D01*
X114273389Y-131285139D01*
X114273400Y-131285141D01*
X114499998Y-131304966D01*
X114500002Y-131304966D01*
X114726599Y-131285141D01*
X114726606Y-131285140D01*
X114843906Y-131253709D01*
X114913755Y-131255372D01*
X114971618Y-131294534D01*
X114999123Y-131358762D01*
X115000000Y-131373484D01*
X115000000Y-138626514D01*
X114980315Y-138693553D01*
X114927511Y-138739308D01*
X114858353Y-138749252D01*
X114843907Y-138746289D01*
X114726610Y-138714860D01*
X114726599Y-138714858D01*
X114500002Y-138695034D01*
X114499998Y-138695034D01*
X114273400Y-138714858D01*
X114273389Y-138714860D01*
X114053682Y-138773730D01*
X114053673Y-138773734D01*
X113847516Y-138869866D01*
X113847512Y-138869868D01*
X113774526Y-138920973D01*
X113774526Y-138920974D01*
X114453553Y-139600000D01*
X114447339Y-139600000D01*
X114345606Y-139627259D01*
X114254394Y-139679920D01*
X114179920Y-139754394D01*
X114127259Y-139845606D01*
X114100000Y-139947339D01*
X114100000Y-139953552D01*
X113420974Y-139274526D01*
X113420973Y-139274526D01*
X113369868Y-139347512D01*
X113369866Y-139347516D01*
X113273734Y-139553673D01*
X113273730Y-139553682D01*
X113214860Y-139773389D01*
X113214858Y-139773400D01*
X113195034Y-139999997D01*
X113195034Y-140000002D01*
X113214858Y-140226599D01*
X113214860Y-140226610D01*
X113273730Y-140446317D01*
X113273735Y-140446331D01*
X113369863Y-140652478D01*
X113420974Y-140725472D01*
X114100000Y-140046446D01*
X114100000Y-140052661D01*
X114127259Y-140154394D01*
X114179920Y-140245606D01*
X114254394Y-140320080D01*
X114345606Y-140372741D01*
X114447339Y-140400000D01*
X114453552Y-140400000D01*
X113774526Y-141079025D01*
X113847513Y-141130132D01*
X113847521Y-141130136D01*
X114053668Y-141226264D01*
X114053682Y-141226269D01*
X114273389Y-141285139D01*
X114273400Y-141285141D01*
X114499998Y-141304966D01*
X114500002Y-141304966D01*
X114726599Y-141285141D01*
X114726606Y-141285140D01*
X114843906Y-141253709D01*
X114913755Y-141255372D01*
X114971618Y-141294534D01*
X114999123Y-141358762D01*
X115000000Y-141373484D01*
X115000000Y-154427726D01*
X114980315Y-154494765D01*
X114927511Y-154540520D01*
X114858353Y-154550464D01*
X114831206Y-154543353D01*
X114823893Y-154540520D01*
X114629940Y-154465382D01*
X114411243Y-154424500D01*
X114188757Y-154424500D01*
X113970060Y-154465382D01*
X113894214Y-154494765D01*
X113762601Y-154545752D01*
X113762595Y-154545754D01*
X113573439Y-154662874D01*
X113573437Y-154662876D01*
X113409020Y-154812761D01*
X113274943Y-154990308D01*
X113274938Y-154990316D01*
X113175775Y-155189461D01*
X113175769Y-155189476D01*
X113114885Y-155403462D01*
X113114884Y-155403464D01*
X113094357Y-155624999D01*
X113094357Y-155625000D01*
X113114884Y-155846535D01*
X113114885Y-155846537D01*
X113175769Y-156060523D01*
X113175775Y-156060538D01*
X113274938Y-156259683D01*
X113274943Y-156259691D01*
X113409020Y-156437238D01*
X113573437Y-156587123D01*
X113573439Y-156587125D01*
X113762595Y-156704245D01*
X113762596Y-156704245D01*
X113762599Y-156704247D01*
X113970060Y-156784618D01*
X114188757Y-156825500D01*
X114188759Y-156825500D01*
X114411241Y-156825500D01*
X114411243Y-156825500D01*
X114629940Y-156784618D01*
X114831209Y-156706645D01*
X114900829Y-156700784D01*
X114962569Y-156733494D01*
X114996824Y-156794390D01*
X115000000Y-156822273D01*
X115000000Y-159375500D01*
X114980315Y-159442539D01*
X114927511Y-159488294D01*
X114876000Y-159499500D01*
X95624500Y-159499500D01*
X95557461Y-159479815D01*
X95511706Y-159427011D01*
X95500500Y-159375500D01*
X95500500Y-155000000D01*
X97824428Y-155000000D01*
X97844690Y-155296240D01*
X97844691Y-155296242D01*
X97905100Y-155586950D01*
X97905105Y-155586967D01*
X98004539Y-155866746D01*
X98004538Y-155866746D01*
X98141149Y-156130393D01*
X98141153Y-156130399D01*
X98312378Y-156372970D01*
X98312382Y-156372974D01*
X98312384Y-156372977D01*
X98515056Y-156589986D01*
X98745390Y-156777377D01*
X98745392Y-156777378D01*
X98745393Y-156777379D01*
X98999096Y-156931659D01*
X98999101Y-156931661D01*
X99271440Y-157049954D01*
X99271445Y-157049956D01*
X99557367Y-157130068D01*
X99815986Y-157165614D01*
X99851533Y-157170500D01*
X99851534Y-157170500D01*
X100148467Y-157170500D01*
X100180180Y-157166140D01*
X100442633Y-157130068D01*
X100728555Y-157049956D01*
X101000905Y-156931658D01*
X101254610Y-156777377D01*
X101484944Y-156589986D01*
X101687616Y-156372977D01*
X101858851Y-156130392D01*
X101932449Y-155988353D01*
X101980768Y-155937887D01*
X102048702Y-155921555D01*
X102114681Y-155944543D01*
X102157759Y-155999554D01*
X102161812Y-156011467D01*
X102175770Y-156060525D01*
X102175775Y-156060538D01*
X102274938Y-156259683D01*
X102274943Y-156259691D01*
X102409020Y-156437238D01*
X102573437Y-156587123D01*
X102573439Y-156587125D01*
X102762595Y-156704245D01*
X102762596Y-156704245D01*
X102762599Y-156704247D01*
X102970060Y-156784618D01*
X103188757Y-156825500D01*
X103188759Y-156825500D01*
X103411241Y-156825500D01*
X103411243Y-156825500D01*
X103629940Y-156784618D01*
X103837401Y-156704247D01*
X104026562Y-156587124D01*
X104190981Y-156437236D01*
X104325058Y-156259689D01*
X104424229Y-156060528D01*
X104485115Y-155846536D01*
X104505643Y-155625000D01*
X104499715Y-155561031D01*
X104485115Y-155403464D01*
X104485114Y-155403462D01*
X104454607Y-155296242D01*
X104424229Y-155189472D01*
X104329883Y-155000000D01*
X104325061Y-154990316D01*
X104325056Y-154990308D01*
X104190979Y-154812761D01*
X104026562Y-154662876D01*
X104026560Y-154662874D01*
X103837404Y-154545754D01*
X103837398Y-154545752D01*
X103629940Y-154465382D01*
X103411243Y-154424500D01*
X103188757Y-154424500D01*
X102970060Y-154465382D01*
X102894214Y-154494765D01*
X102762601Y-154545752D01*
X102762595Y-154545754D01*
X102573439Y-154662874D01*
X102573437Y-154662876D01*
X102409020Y-154812762D01*
X102383233Y-154846910D01*
X102327124Y-154888546D01*
X102257412Y-154893237D01*
X102196230Y-154859495D01*
X102163003Y-154798031D01*
X102160568Y-154780645D01*
X102155309Y-154703759D01*
X102155308Y-154703757D01*
X102094899Y-154413049D01*
X102094894Y-154413032D01*
X101995460Y-154133253D01*
X101995461Y-154133253D01*
X101858850Y-153869606D01*
X101858846Y-153869600D01*
X101687621Y-153627029D01*
X101687617Y-153627025D01*
X101687616Y-153627023D01*
X101484944Y-153410014D01*
X101484937Y-153410009D01*
X101484936Y-153410007D01*
X101254606Y-153222620D01*
X101000903Y-153068340D01*
X101000898Y-153068338D01*
X100728559Y-152950045D01*
X100442638Y-152869933D01*
X100442634Y-152869932D01*
X100442633Y-152869932D01*
X100295549Y-152849716D01*
X100148467Y-152829500D01*
X100148466Y-152829500D01*
X99851534Y-152829500D01*
X99851533Y-152829500D01*
X99557367Y-152869932D01*
X99557361Y-152869933D01*
X99271440Y-152950045D01*
X98999101Y-153068338D01*
X98999096Y-153068340D01*
X98745393Y-153222620D01*
X98515063Y-153410007D01*
X98312378Y-153627029D01*
X98141153Y-153869600D01*
X98141149Y-153869606D01*
X98004539Y-154133253D01*
X97905105Y-154413032D01*
X97905100Y-154413049D01*
X97844691Y-154703757D01*
X97844690Y-154703759D01*
X97824428Y-155000000D01*
X95500500Y-155000000D01*
X95500500Y-144579773D01*
X104050000Y-144579773D01*
X104050000Y-145375000D01*
X105381116Y-145375000D01*
X105350000Y-145531433D01*
X105350000Y-145718567D01*
X105381116Y-145875000D01*
X104050001Y-145875000D01*
X104050001Y-146670227D01*
X104060566Y-146804474D01*
X104116423Y-147026152D01*
X104210962Y-147234287D01*
X104210967Y-147234296D01*
X104341151Y-147422203D01*
X104502796Y-147583848D01*
X104690703Y-147714032D01*
X104690712Y-147714037D01*
X104898847Y-147808576D01*
X105120525Y-147864433D01*
X105254780Y-147874999D01*
X106049999Y-147874999D01*
X106050000Y-147874998D01*
X106050000Y-146543883D01*
X106206433Y-146575000D01*
X106393567Y-146575000D01*
X106550000Y-146543883D01*
X106550000Y-147874999D01*
X107345212Y-147874999D01*
X107345227Y-147874998D01*
X107479474Y-147864433D01*
X107701152Y-147808576D01*
X107909287Y-147714037D01*
X107909296Y-147714032D01*
X108097203Y-147583848D01*
X108258848Y-147422203D01*
X108389032Y-147234296D01*
X108389037Y-147234287D01*
X108483576Y-147026152D01*
X108539433Y-146804474D01*
X108549999Y-146670226D01*
X108550000Y-146670213D01*
X108550000Y-145875000D01*
X107218884Y-145875000D01*
X107250000Y-145718567D01*
X107250000Y-145624992D01*
X109044671Y-145624992D01*
X109044671Y-145625007D01*
X109063964Y-145919363D01*
X109063965Y-145919373D01*
X109063966Y-145919380D01*
X109063968Y-145919390D01*
X109121518Y-146208716D01*
X109121521Y-146208730D01*
X109216349Y-146488080D01*
X109346825Y-146752660D01*
X109346829Y-146752667D01*
X109510725Y-146997955D01*
X109705241Y-147219758D01*
X109927043Y-147414273D01*
X110172335Y-147578172D01*
X110436923Y-147708652D01*
X110716278Y-147803481D01*
X111005620Y-147861034D01*
X111033888Y-147862886D01*
X111299993Y-147880329D01*
X111300000Y-147880329D01*
X111300007Y-147880329D01*
X111542522Y-147864433D01*
X111594380Y-147861034D01*
X111883722Y-147803481D01*
X112163077Y-147708652D01*
X112427665Y-147578172D01*
X112672957Y-147414273D01*
X112894758Y-147219758D01*
X113089273Y-146997957D01*
X113253172Y-146752665D01*
X113383652Y-146488077D01*
X113478481Y-146208722D01*
X113536034Y-145919380D01*
X113555329Y-145625000D01*
X113555329Y-145624992D01*
X113536035Y-145330636D01*
X113536034Y-145330620D01*
X113478481Y-145041278D01*
X113383652Y-144761923D01*
X113253172Y-144497336D01*
X113089273Y-144252043D01*
X113046655Y-144203447D01*
X112894758Y-144030241D01*
X112672955Y-143835725D01*
X112427667Y-143671829D01*
X112427660Y-143671825D01*
X112163080Y-143541349D01*
X111883730Y-143446521D01*
X111883724Y-143446519D01*
X111883722Y-143446519D01*
X111594380Y-143388966D01*
X111594373Y-143388965D01*
X111594363Y-143388964D01*
X111300007Y-143369671D01*
X111299993Y-143369671D01*
X111005636Y-143388964D01*
X111005624Y-143388965D01*
X111005620Y-143388966D01*
X111005612Y-143388967D01*
X111005609Y-143388968D01*
X110716283Y-143446518D01*
X110716269Y-143446521D01*
X110436919Y-143541349D01*
X110172334Y-143671828D01*
X109927041Y-143835728D01*
X109705241Y-144030241D01*
X109510728Y-144252041D01*
X109346828Y-144497334D01*
X109216349Y-144761919D01*
X109121521Y-145041269D01*
X109121518Y-145041283D01*
X109063968Y-145330609D01*
X109063964Y-145330636D01*
X109044671Y-145624992D01*
X107250000Y-145624992D01*
X107250000Y-145531433D01*
X107218884Y-145375000D01*
X108549999Y-145375000D01*
X108549999Y-144579787D01*
X108549998Y-144579772D01*
X108539433Y-144445525D01*
X108483576Y-144223847D01*
X108389037Y-144015712D01*
X108389032Y-144015703D01*
X108258848Y-143827796D01*
X108097203Y-143666151D01*
X107909296Y-143535967D01*
X107909287Y-143535962D01*
X107701152Y-143441423D01*
X107479474Y-143385566D01*
X107345226Y-143375000D01*
X106550000Y-143375000D01*
X106550000Y-144706116D01*
X106393567Y-144675000D01*
X106206433Y-144675000D01*
X106050000Y-144706116D01*
X106050000Y-143375000D01*
X105254787Y-143375000D01*
X105254772Y-143375001D01*
X105120525Y-143385566D01*
X104898847Y-143441423D01*
X104690712Y-143535962D01*
X104690703Y-143535967D01*
X104502796Y-143666151D01*
X104341151Y-143827796D01*
X104210967Y-144015703D01*
X104210962Y-144015712D01*
X104116423Y-144223847D01*
X104060566Y-144445525D01*
X104050000Y-144579773D01*
X95500500Y-144579773D01*
X95500500Y-139999997D01*
X101195034Y-139999997D01*
X101195034Y-140000002D01*
X101214858Y-140226599D01*
X101214860Y-140226610D01*
X101273730Y-140446317D01*
X101273735Y-140446331D01*
X101369863Y-140652478D01*
X101420974Y-140725472D01*
X102100000Y-140046446D01*
X102100000Y-140052661D01*
X102127259Y-140154394D01*
X102179920Y-140245606D01*
X102254394Y-140320080D01*
X102345606Y-140372741D01*
X102447339Y-140400000D01*
X102453553Y-140400000D01*
X101774526Y-141079025D01*
X101847513Y-141130132D01*
X101847521Y-141130136D01*
X102053668Y-141226264D01*
X102053682Y-141226269D01*
X102273389Y-141285139D01*
X102273400Y-141285141D01*
X102499998Y-141304966D01*
X102500002Y-141304966D01*
X102726599Y-141285141D01*
X102726610Y-141285139D01*
X102946317Y-141226269D01*
X102946331Y-141226264D01*
X103152478Y-141130136D01*
X103225471Y-141079024D01*
X102546447Y-140400000D01*
X102552661Y-140400000D01*
X102654394Y-140372741D01*
X102745606Y-140320080D01*
X102820080Y-140245606D01*
X102872741Y-140154394D01*
X102900000Y-140052661D01*
X102900000Y-140046447D01*
X103579024Y-140725471D01*
X103630134Y-140652481D01*
X103637340Y-140637028D01*
X103683511Y-140584587D01*
X103750704Y-140565433D01*
X103817585Y-140585646D01*
X103862105Y-140637022D01*
X103869430Y-140652730D01*
X103869432Y-140652734D01*
X103999954Y-140839141D01*
X104160858Y-141000045D01*
X104160861Y-141000047D01*
X104347266Y-141130568D01*
X104553504Y-141226739D01*
X104773308Y-141285635D01*
X104935230Y-141299801D01*
X104999998Y-141305468D01*
X105000000Y-141305468D01*
X105000002Y-141305468D01*
X105056673Y-141300509D01*
X105226692Y-141285635D01*
X105446496Y-141226739D01*
X105652734Y-141130568D01*
X105839139Y-141000047D01*
X106000047Y-140839139D01*
X106130568Y-140652734D01*
X106226739Y-140446496D01*
X106285635Y-140226692D01*
X106305468Y-140000000D01*
X106285635Y-139773308D01*
X106226739Y-139553504D01*
X106130568Y-139347266D01*
X106000047Y-139160861D01*
X106000045Y-139160858D01*
X105839141Y-138999954D01*
X105652734Y-138869432D01*
X105652732Y-138869431D01*
X105446497Y-138773261D01*
X105446488Y-138773258D01*
X105226697Y-138714366D01*
X105226693Y-138714365D01*
X105226692Y-138714365D01*
X105226691Y-138714364D01*
X105226686Y-138714364D01*
X105000002Y-138694532D01*
X104999998Y-138694532D01*
X104773313Y-138714364D01*
X104773302Y-138714366D01*
X104553511Y-138773258D01*
X104553502Y-138773261D01*
X104347267Y-138869431D01*
X104347265Y-138869432D01*
X104160858Y-138999954D01*
X103999954Y-139160858D01*
X103869432Y-139347265D01*
X103869429Y-139347270D01*
X103862104Y-139362979D01*
X103815929Y-139415417D01*
X103748735Y-139434566D01*
X103681855Y-139414347D01*
X103637341Y-139362973D01*
X103630133Y-139347515D01*
X103630132Y-139347513D01*
X103579025Y-139274526D01*
X102900000Y-139953551D01*
X102900000Y-139947339D01*
X102872741Y-139845606D01*
X102820080Y-139754394D01*
X102745606Y-139679920D01*
X102654394Y-139627259D01*
X102552661Y-139600000D01*
X102546445Y-139600000D01*
X103225472Y-138920974D01*
X103152478Y-138869863D01*
X102946331Y-138773735D01*
X102946317Y-138773730D01*
X102726610Y-138714860D01*
X102726599Y-138714858D01*
X102500002Y-138695034D01*
X102499998Y-138695034D01*
X102273400Y-138714858D01*
X102273389Y-138714860D01*
X102053682Y-138773730D01*
X102053673Y-138773734D01*
X101847516Y-138869866D01*
X101847512Y-138869868D01*
X101774526Y-138920973D01*
X101774526Y-138920974D01*
X102453553Y-139600000D01*
X102447339Y-139600000D01*
X102345606Y-139627259D01*
X102254394Y-139679920D01*
X102179920Y-139754394D01*
X102127259Y-139845606D01*
X102100000Y-139947339D01*
X102100000Y-139953552D01*
X101420974Y-139274526D01*
X101420973Y-139274526D01*
X101369868Y-139347512D01*
X101369866Y-139347516D01*
X101273734Y-139553673D01*
X101273730Y-139553682D01*
X101214860Y-139773389D01*
X101214858Y-139773400D01*
X101195034Y-139999997D01*
X95500500Y-139999997D01*
X95500500Y-129999997D01*
X101195034Y-129999997D01*
X101195034Y-130000002D01*
X101214858Y-130226599D01*
X101214860Y-130226610D01*
X101273730Y-130446317D01*
X101273735Y-130446331D01*
X101369863Y-130652478D01*
X101420974Y-130725472D01*
X102100000Y-130046446D01*
X102100000Y-130052661D01*
X102127259Y-130154394D01*
X102179920Y-130245606D01*
X102254394Y-130320080D01*
X102345606Y-130372741D01*
X102447339Y-130400000D01*
X102453553Y-130400000D01*
X101774526Y-131079025D01*
X101847513Y-131130132D01*
X101847521Y-131130136D01*
X102053668Y-131226264D01*
X102053682Y-131226269D01*
X102273389Y-131285139D01*
X102273400Y-131285141D01*
X102499998Y-131304966D01*
X102500002Y-131304966D01*
X102726599Y-131285141D01*
X102726610Y-131285139D01*
X102946317Y-131226269D01*
X102946331Y-131226264D01*
X103152478Y-131130136D01*
X103225471Y-131079024D01*
X102546447Y-130400000D01*
X102552661Y-130400000D01*
X102654394Y-130372741D01*
X102745606Y-130320080D01*
X102820080Y-130245606D01*
X102872741Y-130154394D01*
X102900000Y-130052661D01*
X102900000Y-130046447D01*
X103579024Y-130725471D01*
X103630134Y-130652481D01*
X103637340Y-130637028D01*
X103683511Y-130584587D01*
X103750704Y-130565433D01*
X103817585Y-130585646D01*
X103862105Y-130637022D01*
X103869430Y-130652730D01*
X103869432Y-130652734D01*
X103999954Y-130839141D01*
X104160858Y-131000045D01*
X104160861Y-131000047D01*
X104347266Y-131130568D01*
X104553504Y-131226739D01*
X104773308Y-131285635D01*
X104935230Y-131299801D01*
X104999998Y-131305468D01*
X105000000Y-131305468D01*
X105000002Y-131305468D01*
X105056673Y-131300509D01*
X105226692Y-131285635D01*
X105446496Y-131226739D01*
X105652734Y-131130568D01*
X105839139Y-131000047D01*
X106000047Y-130839139D01*
X106130568Y-130652734D01*
X106226739Y-130446496D01*
X106285635Y-130226692D01*
X106305468Y-130000000D01*
X106285635Y-129773308D01*
X106226739Y-129553504D01*
X106130568Y-129347266D01*
X106000047Y-129160861D01*
X106000045Y-129160858D01*
X105839141Y-128999954D01*
X105652734Y-128869432D01*
X105652732Y-128869431D01*
X105446497Y-128773261D01*
X105446488Y-128773258D01*
X105226697Y-128714366D01*
X105226693Y-128714365D01*
X105226692Y-128714365D01*
X105226691Y-128714364D01*
X105226686Y-128714364D01*
X105000002Y-128694532D01*
X104999998Y-128694532D01*
X104773313Y-128714364D01*
X104773302Y-128714366D01*
X104553511Y-128773258D01*
X104553502Y-128773261D01*
X104347267Y-128869431D01*
X104347265Y-128869432D01*
X104160858Y-128999954D01*
X103999954Y-129160858D01*
X103869432Y-129347265D01*
X103869429Y-129347270D01*
X103862104Y-129362979D01*
X103815929Y-129415417D01*
X103748735Y-129434566D01*
X103681855Y-129414347D01*
X103637341Y-129362973D01*
X103630133Y-129347515D01*
X103630132Y-129347513D01*
X103579025Y-129274526D01*
X102900000Y-129953551D01*
X102900000Y-129947339D01*
X102872741Y-129845606D01*
X102820080Y-129754394D01*
X102745606Y-129679920D01*
X102654394Y-129627259D01*
X102552661Y-129600000D01*
X102546445Y-129600000D01*
X103225472Y-128920974D01*
X103152478Y-128869863D01*
X102946331Y-128773735D01*
X102946317Y-128773730D01*
X102726610Y-128714860D01*
X102726599Y-128714858D01*
X102500002Y-128695034D01*
X102499998Y-128695034D01*
X102273400Y-128714858D01*
X102273389Y-128714860D01*
X102053682Y-128773730D01*
X102053673Y-128773734D01*
X101847516Y-128869866D01*
X101847512Y-128869868D01*
X101774526Y-128920973D01*
X101774526Y-128920974D01*
X102453553Y-129600000D01*
X102447339Y-129600000D01*
X102345606Y-129627259D01*
X102254394Y-129679920D01*
X102179920Y-129754394D01*
X102127259Y-129845606D01*
X102100000Y-129947339D01*
X102100000Y-129953552D01*
X101420974Y-129274526D01*
X101420973Y-129274526D01*
X101369868Y-129347512D01*
X101369866Y-129347516D01*
X101273734Y-129553673D01*
X101273730Y-129553682D01*
X101214860Y-129773389D01*
X101214858Y-129773400D01*
X101195034Y-129999997D01*
X95500500Y-129999997D01*
X95500500Y-125159998D01*
X96694532Y-125159998D01*
X96694532Y-125160001D01*
X96714364Y-125386686D01*
X96714366Y-125386697D01*
X96773258Y-125606488D01*
X96773261Y-125606497D01*
X96869431Y-125812732D01*
X96869432Y-125812734D01*
X96999954Y-125999141D01*
X97160858Y-126160045D01*
X97160861Y-126160047D01*
X97347266Y-126290568D01*
X97553504Y-126386739D01*
X97773308Y-126445635D01*
X97935230Y-126459801D01*
X97999998Y-126465468D01*
X98000000Y-126465468D01*
X98000002Y-126465468D01*
X98056673Y-126460509D01*
X98226692Y-126445635D01*
X98446496Y-126386739D01*
X98652734Y-126290568D01*
X98839139Y-126160047D01*
X99000047Y-125999139D01*
X99130568Y-125812734D01*
X99226739Y-125606496D01*
X99285635Y-125386692D01*
X99305468Y-125160000D01*
X99305468Y-125159998D01*
X100694532Y-125159998D01*
X100694532Y-125160001D01*
X100714364Y-125386686D01*
X100714366Y-125386697D01*
X100773258Y-125606488D01*
X100773261Y-125606497D01*
X100869431Y-125812732D01*
X100869432Y-125812734D01*
X100999954Y-125999141D01*
X101160858Y-126160045D01*
X101160861Y-126160047D01*
X101347266Y-126290568D01*
X101553504Y-126386739D01*
X101773308Y-126445635D01*
X101935230Y-126459801D01*
X101999998Y-126465468D01*
X102000000Y-126465468D01*
X102000002Y-126465468D01*
X102056673Y-126460509D01*
X102226692Y-126445635D01*
X102446496Y-126386739D01*
X102652734Y-126290568D01*
X102839139Y-126160047D01*
X103000047Y-125999139D01*
X103130568Y-125812734D01*
X103226739Y-125606496D01*
X103285635Y-125386692D01*
X103305468Y-125160000D01*
X103305468Y-125159998D01*
X106694532Y-125159998D01*
X106694532Y-125160001D01*
X106714364Y-125386686D01*
X106714366Y-125386697D01*
X106773258Y-125606488D01*
X106773261Y-125606497D01*
X106869431Y-125812732D01*
X106869432Y-125812734D01*
X106999954Y-125999141D01*
X107160858Y-126160045D01*
X107160861Y-126160047D01*
X107347266Y-126290568D01*
X107553504Y-126386739D01*
X107773308Y-126445635D01*
X107935230Y-126459801D01*
X107999998Y-126465468D01*
X108000000Y-126465468D01*
X108000002Y-126465468D01*
X108056673Y-126460509D01*
X108226692Y-126445635D01*
X108446496Y-126386739D01*
X108652734Y-126290568D01*
X108839139Y-126160047D01*
X109000047Y-125999139D01*
X109130568Y-125812734D01*
X109226739Y-125606496D01*
X109285635Y-125386692D01*
X109305468Y-125160000D01*
X109305468Y-125159998D01*
X110694532Y-125159998D01*
X110694532Y-125160001D01*
X110714364Y-125386686D01*
X110714366Y-125386697D01*
X110773258Y-125606488D01*
X110773261Y-125606497D01*
X110869431Y-125812732D01*
X110869432Y-125812734D01*
X110999954Y-125999141D01*
X111160858Y-126160045D01*
X111160861Y-126160047D01*
X111347266Y-126290568D01*
X111553504Y-126386739D01*
X111773308Y-126445635D01*
X111935230Y-126459801D01*
X111999998Y-126465468D01*
X112000000Y-126465468D01*
X112000002Y-126465468D01*
X112056673Y-126460509D01*
X112226692Y-126445635D01*
X112446496Y-126386739D01*
X112652734Y-126290568D01*
X112839139Y-126160047D01*
X113000047Y-125999139D01*
X113130568Y-125812734D01*
X113226739Y-125606496D01*
X113285635Y-125386692D01*
X113305468Y-125160000D01*
X113285635Y-124933308D01*
X113226739Y-124713504D01*
X113130568Y-124507266D01*
X113000047Y-124320861D01*
X113000045Y-124320858D01*
X112839141Y-124159954D01*
X112652734Y-124029432D01*
X112652732Y-124029431D01*
X112446497Y-123933261D01*
X112446488Y-123933258D01*
X112226697Y-123874366D01*
X112226693Y-123874365D01*
X112226692Y-123874365D01*
X112226691Y-123874364D01*
X112226686Y-123874364D01*
X112000002Y-123854532D01*
X111999998Y-123854532D01*
X111773313Y-123874364D01*
X111773302Y-123874366D01*
X111553511Y-123933258D01*
X111553502Y-123933261D01*
X111347267Y-124029431D01*
X111347265Y-124029432D01*
X111160858Y-124159954D01*
X110999954Y-124320858D01*
X110869432Y-124507265D01*
X110869431Y-124507267D01*
X110773261Y-124713502D01*
X110773258Y-124713511D01*
X110714366Y-124933302D01*
X110714364Y-124933313D01*
X110694532Y-125159998D01*
X109305468Y-125159998D01*
X109285635Y-124933308D01*
X109226739Y-124713504D01*
X109130568Y-124507266D01*
X109000047Y-124320861D01*
X109000045Y-124320858D01*
X108839141Y-124159954D01*
X108652734Y-124029432D01*
X108652732Y-124029431D01*
X108446497Y-123933261D01*
X108446488Y-123933258D01*
X108226697Y-123874366D01*
X108226693Y-123874365D01*
X108226692Y-123874365D01*
X108226691Y-123874364D01*
X108226686Y-123874364D01*
X108000002Y-123854532D01*
X107999998Y-123854532D01*
X107773313Y-123874364D01*
X107773302Y-123874366D01*
X107553511Y-123933258D01*
X107553502Y-123933261D01*
X107347267Y-124029431D01*
X107347265Y-124029432D01*
X107160858Y-124159954D01*
X106999954Y-124320858D01*
X106869432Y-124507265D01*
X106869431Y-124507267D01*
X106773261Y-124713502D01*
X106773258Y-124713511D01*
X106714366Y-124933302D01*
X106714364Y-124933313D01*
X106694532Y-125159998D01*
X103305468Y-125159998D01*
X103285635Y-124933308D01*
X103226739Y-124713504D01*
X103130568Y-124507266D01*
X103000047Y-124320861D01*
X103000045Y-124320858D01*
X102839141Y-124159954D01*
X102652734Y-124029432D01*
X102652732Y-124029431D01*
X102446497Y-123933261D01*
X102446488Y-123933258D01*
X102226697Y-123874366D01*
X102226693Y-123874365D01*
X102226692Y-123874365D01*
X102226691Y-123874364D01*
X102226686Y-123874364D01*
X102000002Y-123854532D01*
X101999998Y-123854532D01*
X101773313Y-123874364D01*
X101773302Y-123874366D01*
X101553511Y-123933258D01*
X101553502Y-123933261D01*
X101347267Y-124029431D01*
X101347265Y-124029432D01*
X101160858Y-124159954D01*
X100999954Y-124320858D01*
X100869432Y-124507265D01*
X100869431Y-124507267D01*
X100773261Y-124713502D01*
X100773258Y-124713511D01*
X100714366Y-124933302D01*
X100714364Y-124933313D01*
X100694532Y-125159998D01*
X99305468Y-125159998D01*
X99285635Y-124933308D01*
X99226739Y-124713504D01*
X99130568Y-124507266D01*
X99000047Y-124320861D01*
X99000045Y-124320858D01*
X98839141Y-124159954D01*
X98652734Y-124029432D01*
X98652732Y-124029431D01*
X98446497Y-123933261D01*
X98446488Y-123933258D01*
X98226697Y-123874366D01*
X98226693Y-123874365D01*
X98226692Y-123874365D01*
X98226691Y-123874364D01*
X98226686Y-123874364D01*
X98000002Y-123854532D01*
X97999998Y-123854532D01*
X97773313Y-123874364D01*
X97773302Y-123874366D01*
X97553511Y-123933258D01*
X97553502Y-123933261D01*
X97347267Y-124029431D01*
X97347265Y-124029432D01*
X97160858Y-124159954D01*
X96999954Y-124320858D01*
X96869432Y-124507265D01*
X96869431Y-124507267D01*
X96773261Y-124713502D01*
X96773258Y-124713511D01*
X96714366Y-124933302D01*
X96714364Y-124933313D01*
X96694532Y-125159998D01*
X95500500Y-125159998D01*
X95500500Y-114999998D01*
X96694532Y-114999998D01*
X96694532Y-115000001D01*
X96714364Y-115226686D01*
X96714366Y-115226697D01*
X96773258Y-115446488D01*
X96773261Y-115446497D01*
X96869431Y-115652732D01*
X96869432Y-115652734D01*
X96999954Y-115839141D01*
X97160858Y-116000045D01*
X97160861Y-116000047D01*
X97347266Y-116130568D01*
X97553504Y-116226739D01*
X97773308Y-116285635D01*
X97935230Y-116299801D01*
X97999998Y-116305468D01*
X98000000Y-116305468D01*
X98000002Y-116305468D01*
X98056673Y-116300509D01*
X98226692Y-116285635D01*
X98446496Y-116226739D01*
X98652734Y-116130568D01*
X98839139Y-116000047D01*
X99000047Y-115839139D01*
X99130568Y-115652734D01*
X99226739Y-115446496D01*
X99285635Y-115226692D01*
X99305468Y-115000000D01*
X99305468Y-114999998D01*
X100694532Y-114999998D01*
X100694532Y-115000001D01*
X100714364Y-115226686D01*
X100714366Y-115226697D01*
X100773258Y-115446488D01*
X100773261Y-115446497D01*
X100869431Y-115652732D01*
X100869432Y-115652734D01*
X100999954Y-115839141D01*
X101160858Y-116000045D01*
X101160861Y-116000047D01*
X101347266Y-116130568D01*
X101553504Y-116226739D01*
X101773308Y-116285635D01*
X101935230Y-116299801D01*
X101999998Y-116305468D01*
X102000000Y-116305468D01*
X102000002Y-116305468D01*
X102056673Y-116300509D01*
X102226692Y-116285635D01*
X102446496Y-116226739D01*
X102652734Y-116130568D01*
X102839139Y-116000047D01*
X103000047Y-115839139D01*
X103130568Y-115652734D01*
X103226739Y-115446496D01*
X103285635Y-115226692D01*
X103305468Y-115000000D01*
X103305468Y-114999998D01*
X106694532Y-114999998D01*
X106694532Y-115000001D01*
X106714364Y-115226686D01*
X106714366Y-115226697D01*
X106773258Y-115446488D01*
X106773261Y-115446497D01*
X106869431Y-115652732D01*
X106869432Y-115652734D01*
X106999954Y-115839141D01*
X107160858Y-116000045D01*
X107160861Y-116000047D01*
X107347266Y-116130568D01*
X107553504Y-116226739D01*
X107773308Y-116285635D01*
X107935230Y-116299801D01*
X107999998Y-116305468D01*
X108000000Y-116305468D01*
X108000002Y-116305468D01*
X108056673Y-116300509D01*
X108226692Y-116285635D01*
X108446496Y-116226739D01*
X108652734Y-116130568D01*
X108839139Y-116000047D01*
X109000047Y-115839139D01*
X109130568Y-115652734D01*
X109226739Y-115446496D01*
X109285635Y-115226692D01*
X109305468Y-115000000D01*
X109305468Y-114999998D01*
X110694532Y-114999998D01*
X110694532Y-115000001D01*
X110714364Y-115226686D01*
X110714366Y-115226697D01*
X110773258Y-115446488D01*
X110773261Y-115446497D01*
X110869431Y-115652732D01*
X110869432Y-115652734D01*
X110999954Y-115839141D01*
X111160858Y-116000045D01*
X111160861Y-116000047D01*
X111347266Y-116130568D01*
X111553504Y-116226739D01*
X111773308Y-116285635D01*
X111935230Y-116299801D01*
X111999998Y-116305468D01*
X112000000Y-116305468D01*
X112000002Y-116305468D01*
X112056673Y-116300509D01*
X112226692Y-116285635D01*
X112446496Y-116226739D01*
X112652734Y-116130568D01*
X112839139Y-116000047D01*
X113000047Y-115839139D01*
X113130568Y-115652734D01*
X113226739Y-115446496D01*
X113285635Y-115226692D01*
X113305468Y-115000000D01*
X113285635Y-114773308D01*
X113226739Y-114553504D01*
X113130568Y-114347266D01*
X113000047Y-114160861D01*
X113000045Y-114160858D01*
X112839141Y-113999954D01*
X112652734Y-113869432D01*
X112652732Y-113869431D01*
X112446497Y-113773261D01*
X112446488Y-113773258D01*
X112226697Y-113714366D01*
X112226693Y-113714365D01*
X112226692Y-113714365D01*
X112226691Y-113714364D01*
X112226686Y-113714364D01*
X112102825Y-113703528D01*
X112037756Y-113678076D01*
X111998367Y-113623682D01*
X111972646Y-113669061D01*
X111910799Y-113701569D01*
X111897175Y-113703528D01*
X111773312Y-113714364D01*
X111773302Y-113714366D01*
X111553511Y-113773258D01*
X111553502Y-113773261D01*
X111347267Y-113869431D01*
X111347265Y-113869432D01*
X111160858Y-113999954D01*
X110999954Y-114160858D01*
X110869432Y-114347265D01*
X110869431Y-114347267D01*
X110773261Y-114553502D01*
X110773258Y-114553511D01*
X110714366Y-114773302D01*
X110714364Y-114773313D01*
X110694532Y-114999998D01*
X109305468Y-114999998D01*
X109285635Y-114773308D01*
X109226739Y-114553504D01*
X109130568Y-114347266D01*
X109000047Y-114160861D01*
X109000045Y-114160858D01*
X108839141Y-113999954D01*
X108652734Y-113869432D01*
X108652732Y-113869431D01*
X108446497Y-113773261D01*
X108446488Y-113773258D01*
X108226697Y-113714366D01*
X108226693Y-113714365D01*
X108226692Y-113714365D01*
X108226691Y-113714364D01*
X108226686Y-113714364D01*
X108102825Y-113703528D01*
X108037756Y-113678076D01*
X107998367Y-113623682D01*
X107972646Y-113669061D01*
X107910799Y-113701569D01*
X107897175Y-113703528D01*
X107773312Y-113714364D01*
X107773302Y-113714366D01*
X107553511Y-113773258D01*
X107553502Y-113773261D01*
X107347267Y-113869431D01*
X107347265Y-113869432D01*
X107160858Y-113999954D01*
X106999954Y-114160858D01*
X106869432Y-114347265D01*
X106869431Y-114347267D01*
X106773261Y-114553502D01*
X106773258Y-114553511D01*
X106714366Y-114773302D01*
X106714364Y-114773313D01*
X106694532Y-114999998D01*
X103305468Y-114999998D01*
X103285635Y-114773308D01*
X103226739Y-114553504D01*
X103130568Y-114347266D01*
X103000047Y-114160861D01*
X103000045Y-114160858D01*
X102839141Y-113999954D01*
X102652734Y-113869432D01*
X102652732Y-113869431D01*
X102446497Y-113773261D01*
X102446488Y-113773258D01*
X102226697Y-113714366D01*
X102226693Y-113714365D01*
X102226692Y-113714365D01*
X102226691Y-113714364D01*
X102226686Y-113714364D01*
X102102825Y-113703528D01*
X102037756Y-113678076D01*
X101998367Y-113623682D01*
X101972646Y-113669061D01*
X101910799Y-113701569D01*
X101897175Y-113703528D01*
X101773312Y-113714364D01*
X101773302Y-113714366D01*
X101553511Y-113773258D01*
X101553502Y-113773261D01*
X101347267Y-113869431D01*
X101347265Y-113869432D01*
X101160858Y-113999954D01*
X100999954Y-114160858D01*
X100869432Y-114347265D01*
X100869431Y-114347267D01*
X100773261Y-114553502D01*
X100773258Y-114553511D01*
X100714366Y-114773302D01*
X100714364Y-114773313D01*
X100694532Y-114999998D01*
X99305468Y-114999998D01*
X99285635Y-114773308D01*
X99226739Y-114553504D01*
X99130568Y-114347266D01*
X99000047Y-114160861D01*
X99000045Y-114160858D01*
X98839141Y-113999954D01*
X98652734Y-113869432D01*
X98652732Y-113869431D01*
X98446497Y-113773261D01*
X98446488Y-113773258D01*
X98226697Y-113714366D01*
X98226693Y-113714365D01*
X98226692Y-113714365D01*
X98226691Y-113714364D01*
X98226686Y-113714364D01*
X98102825Y-113703528D01*
X98037756Y-113678076D01*
X97998367Y-113623682D01*
X97972646Y-113669061D01*
X97910799Y-113701569D01*
X97897175Y-113703528D01*
X97773312Y-113714364D01*
X97773302Y-113714366D01*
X97553511Y-113773258D01*
X97553502Y-113773261D01*
X97347267Y-113869431D01*
X97347265Y-113869432D01*
X97160858Y-113999954D01*
X96999954Y-114160858D01*
X96869432Y-114347265D01*
X96869431Y-114347267D01*
X96773261Y-114553502D01*
X96773258Y-114553511D01*
X96714366Y-114773302D01*
X96714364Y-114773313D01*
X96694532Y-114999998D01*
X95500500Y-114999998D01*
X95500500Y-112159998D01*
X96694532Y-112159998D01*
X96694532Y-112160001D01*
X96714364Y-112386686D01*
X96714366Y-112386697D01*
X96773258Y-112606488D01*
X96773261Y-112606497D01*
X96869431Y-112812732D01*
X96869432Y-112812734D01*
X96999954Y-112999141D01*
X97160858Y-113160045D01*
X97160861Y-113160047D01*
X97347266Y-113290568D01*
X97553504Y-113386739D01*
X97773308Y-113445635D01*
X97887141Y-113455594D01*
X97897175Y-113456472D01*
X97962243Y-113481925D01*
X98001631Y-113536317D01*
X98027353Y-113490939D01*
X98089200Y-113458431D01*
X98102825Y-113456472D01*
X98109699Y-113455870D01*
X98226692Y-113445635D01*
X98446496Y-113386739D01*
X98652734Y-113290568D01*
X98839139Y-113160047D01*
X99000047Y-112999139D01*
X99130568Y-112812734D01*
X99226739Y-112606496D01*
X99285635Y-112386692D01*
X99305468Y-112160000D01*
X99305468Y-112159998D01*
X100694532Y-112159998D01*
X100694532Y-112160001D01*
X100714364Y-112386686D01*
X100714366Y-112386697D01*
X100773258Y-112606488D01*
X100773261Y-112606497D01*
X100869431Y-112812732D01*
X100869432Y-112812734D01*
X100999954Y-112999141D01*
X101160858Y-113160045D01*
X101160861Y-113160047D01*
X101347266Y-113290568D01*
X101553504Y-113386739D01*
X101773308Y-113445635D01*
X101887141Y-113455594D01*
X101897175Y-113456472D01*
X101962243Y-113481925D01*
X102001631Y-113536317D01*
X102027353Y-113490939D01*
X102089200Y-113458431D01*
X102102825Y-113456472D01*
X102109699Y-113455870D01*
X102226692Y-113445635D01*
X102446496Y-113386739D01*
X102652734Y-113290568D01*
X102839139Y-113160047D01*
X103000047Y-112999139D01*
X103130568Y-112812734D01*
X103226739Y-112606496D01*
X103285635Y-112386692D01*
X103305468Y-112160000D01*
X103305468Y-112159998D01*
X106694532Y-112159998D01*
X106694532Y-112160001D01*
X106714364Y-112386686D01*
X106714366Y-112386697D01*
X106773258Y-112606488D01*
X106773261Y-112606497D01*
X106869431Y-112812732D01*
X106869432Y-112812734D01*
X106999954Y-112999141D01*
X107160858Y-113160045D01*
X107160861Y-113160047D01*
X107347266Y-113290568D01*
X107553504Y-113386739D01*
X107773308Y-113445635D01*
X107887141Y-113455594D01*
X107897175Y-113456472D01*
X107962243Y-113481925D01*
X108001631Y-113536317D01*
X108027353Y-113490939D01*
X108089200Y-113458431D01*
X108102825Y-113456472D01*
X108109699Y-113455870D01*
X108226692Y-113445635D01*
X108446496Y-113386739D01*
X108652734Y-113290568D01*
X108839139Y-113160047D01*
X109000047Y-112999139D01*
X109130568Y-112812734D01*
X109226739Y-112606496D01*
X109285635Y-112386692D01*
X109305468Y-112160000D01*
X109305468Y-112159998D01*
X110694532Y-112159998D01*
X110694532Y-112160001D01*
X110714364Y-112386686D01*
X110714366Y-112386697D01*
X110773258Y-112606488D01*
X110773261Y-112606497D01*
X110869431Y-112812732D01*
X110869432Y-112812734D01*
X110999954Y-112999141D01*
X111160858Y-113160045D01*
X111160861Y-113160047D01*
X111347266Y-113290568D01*
X111553504Y-113386739D01*
X111773308Y-113445635D01*
X111887141Y-113455594D01*
X111897175Y-113456472D01*
X111962243Y-113481925D01*
X112001631Y-113536317D01*
X112027353Y-113490939D01*
X112089200Y-113458431D01*
X112102825Y-113456472D01*
X112109699Y-113455870D01*
X112226692Y-113445635D01*
X112446496Y-113386739D01*
X112652734Y-113290568D01*
X112839139Y-113160047D01*
X113000047Y-112999139D01*
X113130568Y-112812734D01*
X113226739Y-112606496D01*
X113285635Y-112386692D01*
X113305468Y-112160000D01*
X113285635Y-111933308D01*
X113226739Y-111713504D01*
X113130568Y-111507266D01*
X113000047Y-111320861D01*
X113000045Y-111320858D01*
X112839141Y-111159954D01*
X112652734Y-111029432D01*
X112652732Y-111029431D01*
X112446497Y-110933261D01*
X112446488Y-110933258D01*
X112226697Y-110874366D01*
X112226693Y-110874365D01*
X112226692Y-110874365D01*
X112226691Y-110874364D01*
X112226686Y-110874364D01*
X112000002Y-110854532D01*
X111999998Y-110854532D01*
X111773313Y-110874364D01*
X111773302Y-110874366D01*
X111553511Y-110933258D01*
X111553502Y-110933261D01*
X111347267Y-111029431D01*
X111347265Y-111029432D01*
X111160858Y-111159954D01*
X110999954Y-111320858D01*
X110869432Y-111507265D01*
X110869431Y-111507267D01*
X110773261Y-111713502D01*
X110773258Y-111713511D01*
X110714366Y-111933302D01*
X110714364Y-111933313D01*
X110694532Y-112159998D01*
X109305468Y-112159998D01*
X109285635Y-111933308D01*
X109226739Y-111713504D01*
X109130568Y-111507266D01*
X109000047Y-111320861D01*
X109000045Y-111320858D01*
X108839141Y-111159954D01*
X108652734Y-111029432D01*
X108652732Y-111029431D01*
X108446497Y-110933261D01*
X108446488Y-110933258D01*
X108226697Y-110874366D01*
X108226693Y-110874365D01*
X108226692Y-110874365D01*
X108226691Y-110874364D01*
X108226686Y-110874364D01*
X108000002Y-110854532D01*
X107999998Y-110854532D01*
X107773313Y-110874364D01*
X107773302Y-110874366D01*
X107553511Y-110933258D01*
X107553502Y-110933261D01*
X107347267Y-111029431D01*
X107347265Y-111029432D01*
X107160858Y-111159954D01*
X106999954Y-111320858D01*
X106869432Y-111507265D01*
X106869431Y-111507267D01*
X106773261Y-111713502D01*
X106773258Y-111713511D01*
X106714366Y-111933302D01*
X106714364Y-111933313D01*
X106694532Y-112159998D01*
X103305468Y-112159998D01*
X103285635Y-111933308D01*
X103226739Y-111713504D01*
X103130568Y-111507266D01*
X103000047Y-111320861D01*
X103000045Y-111320858D01*
X102839141Y-111159954D01*
X102652734Y-111029432D01*
X102652732Y-111029431D01*
X102446497Y-110933261D01*
X102446488Y-110933258D01*
X102226697Y-110874366D01*
X102226693Y-110874365D01*
X102226692Y-110874365D01*
X102226691Y-110874364D01*
X102226686Y-110874364D01*
X102000002Y-110854532D01*
X101999998Y-110854532D01*
X101773313Y-110874364D01*
X101773302Y-110874366D01*
X101553511Y-110933258D01*
X101553502Y-110933261D01*
X101347267Y-111029431D01*
X101347265Y-111029432D01*
X101160858Y-111159954D01*
X100999954Y-111320858D01*
X100869432Y-111507265D01*
X100869431Y-111507267D01*
X100773261Y-111713502D01*
X100773258Y-111713511D01*
X100714366Y-111933302D01*
X100714364Y-111933313D01*
X100694532Y-112159998D01*
X99305468Y-112159998D01*
X99285635Y-111933308D01*
X99226739Y-111713504D01*
X99130568Y-111507266D01*
X99000047Y-111320861D01*
X99000045Y-111320858D01*
X98839141Y-111159954D01*
X98652734Y-111029432D01*
X98652732Y-111029431D01*
X98446497Y-110933261D01*
X98446488Y-110933258D01*
X98226697Y-110874366D01*
X98226693Y-110874365D01*
X98226692Y-110874365D01*
X98226691Y-110874364D01*
X98226686Y-110874364D01*
X98000002Y-110854532D01*
X97999998Y-110854532D01*
X97773313Y-110874364D01*
X97773302Y-110874366D01*
X97553511Y-110933258D01*
X97553502Y-110933261D01*
X97347267Y-111029431D01*
X97347265Y-111029432D01*
X97160858Y-111159954D01*
X96999954Y-111320858D01*
X96869432Y-111507265D01*
X96869431Y-111507267D01*
X96773261Y-111713502D01*
X96773258Y-111713511D01*
X96714366Y-111933302D01*
X96714364Y-111933313D01*
X96694532Y-112159998D01*
X95500500Y-112159998D01*
X95500500Y-101999998D01*
X96694532Y-101999998D01*
X96694532Y-102000001D01*
X96714364Y-102226686D01*
X96714366Y-102226697D01*
X96773258Y-102446488D01*
X96773261Y-102446497D01*
X96869431Y-102652732D01*
X96869432Y-102652734D01*
X96999954Y-102839141D01*
X97160858Y-103000045D01*
X97160861Y-103000047D01*
X97347266Y-103130568D01*
X97553504Y-103226739D01*
X97773308Y-103285635D01*
X97935230Y-103299801D01*
X97999998Y-103305468D01*
X98000000Y-103305468D01*
X98000002Y-103305468D01*
X98056673Y-103300509D01*
X98226692Y-103285635D01*
X98446496Y-103226739D01*
X98652734Y-103130568D01*
X98839139Y-103000047D01*
X99000047Y-102839139D01*
X99130568Y-102652734D01*
X99226739Y-102446496D01*
X99285635Y-102226692D01*
X99305468Y-102000000D01*
X99305468Y-101999998D01*
X100694532Y-101999998D01*
X100694532Y-102000001D01*
X100714364Y-102226686D01*
X100714366Y-102226697D01*
X100773258Y-102446488D01*
X100773261Y-102446497D01*
X100869431Y-102652732D01*
X100869432Y-102652734D01*
X100999954Y-102839141D01*
X101160858Y-103000045D01*
X101160861Y-103000047D01*
X101347266Y-103130568D01*
X101553504Y-103226739D01*
X101773308Y-103285635D01*
X101935230Y-103299801D01*
X101999998Y-103305468D01*
X102000000Y-103305468D01*
X102000002Y-103305468D01*
X102056673Y-103300509D01*
X102226692Y-103285635D01*
X102446496Y-103226739D01*
X102652734Y-103130568D01*
X102839139Y-103000047D01*
X103000047Y-102839139D01*
X103130568Y-102652734D01*
X103226739Y-102446496D01*
X103285635Y-102226692D01*
X103305468Y-102000000D01*
X103305468Y-101999998D01*
X106694532Y-101999998D01*
X106694532Y-102000001D01*
X106714364Y-102226686D01*
X106714366Y-102226697D01*
X106773258Y-102446488D01*
X106773261Y-102446497D01*
X106869431Y-102652732D01*
X106869432Y-102652734D01*
X106999954Y-102839141D01*
X107160858Y-103000045D01*
X107160861Y-103000047D01*
X107347266Y-103130568D01*
X107553504Y-103226739D01*
X107773308Y-103285635D01*
X107935230Y-103299801D01*
X107999998Y-103305468D01*
X108000000Y-103305468D01*
X108000002Y-103305468D01*
X108056673Y-103300509D01*
X108226692Y-103285635D01*
X108446496Y-103226739D01*
X108652734Y-103130568D01*
X108839139Y-103000047D01*
X109000047Y-102839139D01*
X109130568Y-102652734D01*
X109226739Y-102446496D01*
X109285635Y-102226692D01*
X109305468Y-102000000D01*
X109305468Y-101999998D01*
X110694532Y-101999998D01*
X110694532Y-102000001D01*
X110714364Y-102226686D01*
X110714366Y-102226697D01*
X110773258Y-102446488D01*
X110773261Y-102446497D01*
X110869431Y-102652732D01*
X110869432Y-102652734D01*
X110999954Y-102839141D01*
X111160858Y-103000045D01*
X111160861Y-103000047D01*
X111347266Y-103130568D01*
X111553504Y-103226739D01*
X111773308Y-103285635D01*
X111935230Y-103299801D01*
X111999998Y-103305468D01*
X112000000Y-103305468D01*
X112000002Y-103305468D01*
X112056673Y-103300509D01*
X112226692Y-103285635D01*
X112446496Y-103226739D01*
X112652734Y-103130568D01*
X112839139Y-103000047D01*
X113000047Y-102839139D01*
X113130568Y-102652734D01*
X113226739Y-102446496D01*
X113285635Y-102226692D01*
X113305468Y-102000000D01*
X113285635Y-101773308D01*
X113226739Y-101553504D01*
X113130568Y-101347266D01*
X113000047Y-101160861D01*
X113000045Y-101160858D01*
X112839141Y-100999954D01*
X112652734Y-100869432D01*
X112652732Y-100869431D01*
X112446497Y-100773261D01*
X112446488Y-100773258D01*
X112226697Y-100714366D01*
X112226693Y-100714365D01*
X112226692Y-100714365D01*
X112226691Y-100714364D01*
X112226686Y-100714364D01*
X112000002Y-100694532D01*
X111999998Y-100694532D01*
X111773313Y-100714364D01*
X111773302Y-100714366D01*
X111553511Y-100773258D01*
X111553502Y-100773261D01*
X111347267Y-100869431D01*
X111347265Y-100869432D01*
X111160858Y-100999954D01*
X110999954Y-101160858D01*
X110869432Y-101347265D01*
X110869431Y-101347267D01*
X110773261Y-101553502D01*
X110773258Y-101553511D01*
X110714366Y-101773302D01*
X110714364Y-101773313D01*
X110694532Y-101999998D01*
X109305468Y-101999998D01*
X109285635Y-101773308D01*
X109226739Y-101553504D01*
X109130568Y-101347266D01*
X109000047Y-101160861D01*
X109000045Y-101160858D01*
X108839141Y-100999954D01*
X108652734Y-100869432D01*
X108652732Y-100869431D01*
X108446497Y-100773261D01*
X108446488Y-100773258D01*
X108226697Y-100714366D01*
X108226693Y-100714365D01*
X108226692Y-100714365D01*
X108226691Y-100714364D01*
X108226686Y-100714364D01*
X108000002Y-100694532D01*
X107999998Y-100694532D01*
X107773313Y-100714364D01*
X107773302Y-100714366D01*
X107553511Y-100773258D01*
X107553502Y-100773261D01*
X107347267Y-100869431D01*
X107347265Y-100869432D01*
X107160858Y-100999954D01*
X106999954Y-101160858D01*
X106869432Y-101347265D01*
X106869431Y-101347267D01*
X106773261Y-101553502D01*
X106773258Y-101553511D01*
X106714366Y-101773302D01*
X106714364Y-101773313D01*
X106694532Y-101999998D01*
X103305468Y-101999998D01*
X103285635Y-101773308D01*
X103226739Y-101553504D01*
X103130568Y-101347266D01*
X103000047Y-101160861D01*
X103000045Y-101160858D01*
X102839141Y-100999954D01*
X102652734Y-100869432D01*
X102652732Y-100869431D01*
X102446497Y-100773261D01*
X102446488Y-100773258D01*
X102226697Y-100714366D01*
X102226693Y-100714365D01*
X102226692Y-100714365D01*
X102226691Y-100714364D01*
X102226686Y-100714364D01*
X102000002Y-100694532D01*
X101999998Y-100694532D01*
X101773313Y-100714364D01*
X101773302Y-100714366D01*
X101553511Y-100773258D01*
X101553502Y-100773261D01*
X101347267Y-100869431D01*
X101347265Y-100869432D01*
X101160858Y-100999954D01*
X100999954Y-101160858D01*
X100869432Y-101347265D01*
X100869431Y-101347267D01*
X100773261Y-101553502D01*
X100773258Y-101553511D01*
X100714366Y-101773302D01*
X100714364Y-101773313D01*
X100694532Y-101999998D01*
X99305468Y-101999998D01*
X99285635Y-101773308D01*
X99226739Y-101553504D01*
X99130568Y-101347266D01*
X99000047Y-101160861D01*
X99000045Y-101160858D01*
X98839141Y-100999954D01*
X98652734Y-100869432D01*
X98652732Y-100869431D01*
X98446497Y-100773261D01*
X98446488Y-100773258D01*
X98226697Y-100714366D01*
X98226693Y-100714365D01*
X98226692Y-100714365D01*
X98226691Y-100714364D01*
X98226686Y-100714364D01*
X98000002Y-100694532D01*
X97999998Y-100694532D01*
X97773313Y-100714364D01*
X97773302Y-100714366D01*
X97553511Y-100773258D01*
X97553502Y-100773261D01*
X97347267Y-100869431D01*
X97347265Y-100869432D01*
X97160858Y-100999954D01*
X96999954Y-101160858D01*
X96869432Y-101347265D01*
X96869431Y-101347267D01*
X96773261Y-101553502D01*
X96773258Y-101553511D01*
X96714366Y-101773302D01*
X96714364Y-101773313D01*
X96694532Y-101999998D01*
X95500500Y-101999998D01*
X95500500Y-96474998D01*
X98664532Y-96474998D01*
X98664532Y-96475001D01*
X98684364Y-96701686D01*
X98684366Y-96701697D01*
X98743258Y-96921488D01*
X98743261Y-96921497D01*
X98839431Y-97127732D01*
X98839432Y-97127734D01*
X98969954Y-97314141D01*
X99130858Y-97475045D01*
X99130861Y-97475047D01*
X99317266Y-97605568D01*
X99523504Y-97701739D01*
X99743308Y-97760635D01*
X99905230Y-97774801D01*
X99969998Y-97780468D01*
X99970000Y-97780468D01*
X99970002Y-97780468D01*
X100026673Y-97775509D01*
X100196692Y-97760635D01*
X100416496Y-97701739D01*
X100622734Y-97605568D01*
X100809139Y-97475047D01*
X100970047Y-97314139D01*
X101100568Y-97127734D01*
X101196739Y-96921496D01*
X101255635Y-96701692D01*
X101275468Y-96475000D01*
X101275468Y-96474998D01*
X108824532Y-96474998D01*
X108824532Y-96475001D01*
X108844364Y-96701686D01*
X108844366Y-96701697D01*
X108903258Y-96921488D01*
X108903261Y-96921497D01*
X108999431Y-97127732D01*
X108999432Y-97127734D01*
X109129954Y-97314141D01*
X109290858Y-97475045D01*
X109290861Y-97475047D01*
X109477266Y-97605568D01*
X109683504Y-97701739D01*
X109903308Y-97760635D01*
X110065230Y-97774801D01*
X110129998Y-97780468D01*
X110130000Y-97780468D01*
X110130002Y-97780468D01*
X110186673Y-97775509D01*
X110356692Y-97760635D01*
X110576496Y-97701739D01*
X110782734Y-97605568D01*
X110969139Y-97475047D01*
X111130047Y-97314139D01*
X111260568Y-97127734D01*
X111356739Y-96921496D01*
X111415635Y-96701692D01*
X111435468Y-96475000D01*
X111415635Y-96248308D01*
X111356739Y-96028504D01*
X111260568Y-95822266D01*
X111130047Y-95635861D01*
X111130045Y-95635858D01*
X110969141Y-95474954D01*
X110782734Y-95344432D01*
X110782732Y-95344431D01*
X110576497Y-95248261D01*
X110576488Y-95248258D01*
X110356697Y-95189366D01*
X110356693Y-95189365D01*
X110356692Y-95189365D01*
X110356691Y-95189364D01*
X110356686Y-95189364D01*
X110130002Y-95169532D01*
X110129998Y-95169532D01*
X109903313Y-95189364D01*
X109903302Y-95189366D01*
X109683511Y-95248258D01*
X109683502Y-95248261D01*
X109477267Y-95344431D01*
X109477265Y-95344432D01*
X109290858Y-95474954D01*
X109129954Y-95635858D01*
X108999432Y-95822265D01*
X108999431Y-95822267D01*
X108903261Y-96028502D01*
X108903258Y-96028511D01*
X108844366Y-96248302D01*
X108844364Y-96248313D01*
X108824532Y-96474998D01*
X101275468Y-96474998D01*
X101255635Y-96248308D01*
X101196739Y-96028504D01*
X101100568Y-95822266D01*
X100970047Y-95635861D01*
X100970045Y-95635858D01*
X100809141Y-95474954D01*
X100622734Y-95344432D01*
X100622732Y-95344431D01*
X100416497Y-95248261D01*
X100416488Y-95248258D01*
X100196697Y-95189366D01*
X100196693Y-95189365D01*
X100196692Y-95189365D01*
X100196691Y-95189364D01*
X100196686Y-95189364D01*
X99970002Y-95169532D01*
X99969998Y-95169532D01*
X99743313Y-95189364D01*
X99743302Y-95189366D01*
X99523511Y-95248258D01*
X99523502Y-95248261D01*
X99317267Y-95344431D01*
X99317265Y-95344432D01*
X99130858Y-95474954D01*
X98969954Y-95635858D01*
X98839432Y-95822265D01*
X98839431Y-95822267D01*
X98743261Y-96028502D01*
X98743258Y-96028511D01*
X98684366Y-96248302D01*
X98684364Y-96248313D01*
X98664532Y-96474998D01*
X95500500Y-96474998D01*
X95500500Y-93289993D01*
X98569700Y-93289993D01*
X98569700Y-93290006D01*
X98588864Y-93521297D01*
X98588866Y-93521308D01*
X98645842Y-93746300D01*
X98739075Y-93958848D01*
X98866016Y-94153147D01*
X98866019Y-94153151D01*
X98866021Y-94153153D01*
X99023216Y-94323913D01*
X99023219Y-94323915D01*
X99023222Y-94323918D01*
X99206365Y-94466464D01*
X99206371Y-94466468D01*
X99206374Y-94466470D01*
X99410497Y-94576936D01*
X99524487Y-94616068D01*
X99630015Y-94652297D01*
X99630017Y-94652297D01*
X99630019Y-94652298D01*
X99858951Y-94690500D01*
X99858952Y-94690500D01*
X100091048Y-94690500D01*
X100091049Y-94690500D01*
X100319981Y-94652298D01*
X100539503Y-94576936D01*
X100743626Y-94466470D01*
X100926784Y-94323913D01*
X101083979Y-94153153D01*
X101210924Y-93958849D01*
X101304157Y-93746300D01*
X101361134Y-93521305D01*
X101380300Y-93290000D01*
X101380300Y-93289993D01*
X101361135Y-93058702D01*
X101361133Y-93058691D01*
X101304157Y-92833699D01*
X101210924Y-92621151D01*
X101083981Y-92426849D01*
X100988832Y-92323489D01*
X100957910Y-92260835D01*
X100965770Y-92191409D01*
X101009918Y-92137253D01*
X101036730Y-92123325D01*
X101117084Y-92093355D01*
X101117093Y-92093350D01*
X101232187Y-92007190D01*
X101232190Y-92007187D01*
X101318350Y-91892093D01*
X101318354Y-91892086D01*
X101368596Y-91757379D01*
X101368598Y-91757372D01*
X101374999Y-91697844D01*
X101375000Y-91697827D01*
X101375000Y-91000000D01*
X100350278Y-91000000D01*
X100394333Y-90923694D01*
X100425000Y-90809244D01*
X100425000Y-90690756D01*
X100394333Y-90576306D01*
X100350278Y-90500000D01*
X101375000Y-90500000D01*
X101375000Y-89802172D01*
X101374999Y-89802155D01*
X101368598Y-89742627D01*
X101368596Y-89742620D01*
X101318354Y-89607913D01*
X101318350Y-89607906D01*
X101232190Y-89492812D01*
X101232187Y-89492809D01*
X101117093Y-89406649D01*
X101117086Y-89406645D01*
X100982379Y-89356403D01*
X100982372Y-89356401D01*
X100922844Y-89350000D01*
X100225000Y-89350000D01*
X100225000Y-90374722D01*
X100148694Y-90330667D01*
X100034244Y-90300000D01*
X99915756Y-90300000D01*
X99801306Y-90330667D01*
X99725000Y-90374722D01*
X99725000Y-89350000D01*
X99027155Y-89350000D01*
X98967627Y-89356401D01*
X98967620Y-89356403D01*
X98832913Y-89406645D01*
X98832906Y-89406649D01*
X98717812Y-89492809D01*
X98717809Y-89492812D01*
X98631649Y-89607906D01*
X98631645Y-89607913D01*
X98581403Y-89742620D01*
X98581401Y-89742627D01*
X98575000Y-89802155D01*
X98575000Y-90500000D01*
X99599722Y-90500000D01*
X99555667Y-90576306D01*
X99525000Y-90690756D01*
X99525000Y-90809244D01*
X99555667Y-90923694D01*
X99599722Y-91000000D01*
X98575000Y-91000000D01*
X98575000Y-91697844D01*
X98581401Y-91757372D01*
X98581403Y-91757379D01*
X98631645Y-91892086D01*
X98631649Y-91892093D01*
X98717809Y-92007187D01*
X98717812Y-92007190D01*
X98832906Y-92093350D01*
X98832913Y-92093354D01*
X98913270Y-92123325D01*
X98969204Y-92165196D01*
X98993621Y-92230660D01*
X98978770Y-92298933D01*
X98961168Y-92323489D01*
X98866021Y-92426847D01*
X98866019Y-92426848D01*
X98866016Y-92426853D01*
X98739075Y-92621151D01*
X98645842Y-92833699D01*
X98588866Y-93058691D01*
X98588864Y-93058702D01*
X98569700Y-93289993D01*
X95500500Y-93289993D01*
X95500500Y-85000000D01*
X97824428Y-85000000D01*
X97844690Y-85296240D01*
X97844691Y-85296242D01*
X97905100Y-85586950D01*
X97905105Y-85586967D01*
X98004539Y-85866746D01*
X98004538Y-85866746D01*
X98141149Y-86130393D01*
X98141153Y-86130399D01*
X98312378Y-86372970D01*
X98312382Y-86372974D01*
X98312384Y-86372977D01*
X98515056Y-86589986D01*
X98745390Y-86777377D01*
X98745392Y-86777378D01*
X98745393Y-86777379D01*
X98999096Y-86931659D01*
X98999101Y-86931661D01*
X99004887Y-86934174D01*
X99271445Y-87049956D01*
X99557367Y-87130068D01*
X99815986Y-87165614D01*
X99851533Y-87170500D01*
X99851534Y-87170500D01*
X100148467Y-87170500D01*
X100180180Y-87166140D01*
X100442633Y-87130068D01*
X100728555Y-87049956D01*
X101000905Y-86931658D01*
X101254610Y-86777377D01*
X101484944Y-86589986D01*
X101687616Y-86372977D01*
X101858851Y-86130392D01*
X101873482Y-86102155D01*
X103625000Y-86102155D01*
X103625000Y-86750000D01*
X104541988Y-86750000D01*
X104509075Y-86807007D01*
X104475000Y-86934174D01*
X104475000Y-87065826D01*
X104509075Y-87192993D01*
X104541988Y-87250000D01*
X103625000Y-87250000D01*
X103625000Y-87897844D01*
X103631401Y-87957372D01*
X103631403Y-87957379D01*
X103681645Y-88092086D01*
X103681649Y-88092093D01*
X103767809Y-88207187D01*
X103767812Y-88207190D01*
X103882906Y-88293350D01*
X103882913Y-88293354D01*
X104017620Y-88343596D01*
X104017627Y-88343598D01*
X104077155Y-88349999D01*
X104077172Y-88350000D01*
X104725000Y-88350000D01*
X104725000Y-87433012D01*
X104782007Y-87465925D01*
X104909174Y-87500000D01*
X105040826Y-87500000D01*
X105167993Y-87465925D01*
X105225000Y-87433012D01*
X105225000Y-88350000D01*
X105872828Y-88350000D01*
X105872844Y-88349999D01*
X105932372Y-88343598D01*
X105932379Y-88343596D01*
X106067086Y-88293354D01*
X106067093Y-88293350D01*
X106182187Y-88207190D01*
X106182190Y-88207187D01*
X106268350Y-88092093D01*
X106268354Y-88092086D01*
X106317422Y-87960529D01*
X106359293Y-87904595D01*
X106424757Y-87880178D01*
X106493030Y-87895030D01*
X106521285Y-87916181D01*
X106643599Y-88038495D01*
X106740384Y-88106265D01*
X106837165Y-88174032D01*
X106837167Y-88174033D01*
X106837170Y-88174035D01*
X107051337Y-88273903D01*
X107279592Y-88335063D01*
X107456034Y-88350500D01*
X107514999Y-88355659D01*
X107515000Y-88355659D01*
X107515001Y-88355659D01*
X107573966Y-88350500D01*
X107750408Y-88335063D01*
X107978663Y-88273903D01*
X108192830Y-88174035D01*
X108386401Y-88038495D01*
X108553495Y-87871401D01*
X108683425Y-87685842D01*
X108738002Y-87642217D01*
X108807500Y-87635023D01*
X108869855Y-87666546D01*
X108886575Y-87685842D01*
X109016500Y-87871395D01*
X109016505Y-87871401D01*
X109183599Y-88038495D01*
X109280384Y-88106265D01*
X109377165Y-88174032D01*
X109377167Y-88174033D01*
X109377170Y-88174035D01*
X109591337Y-88273903D01*
X109819592Y-88335063D01*
X109996034Y-88350500D01*
X110054999Y-88355659D01*
X110055000Y-88355659D01*
X110055001Y-88355659D01*
X110113966Y-88350500D01*
X110290408Y-88335063D01*
X110518663Y-88273903D01*
X110732830Y-88174035D01*
X110926401Y-88038495D01*
X111093495Y-87871401D01*
X111229035Y-87677830D01*
X111328903Y-87463663D01*
X111390063Y-87235408D01*
X111410659Y-87000000D01*
X111390063Y-86764592D01*
X111328903Y-86536337D01*
X111229035Y-86322171D01*
X111223425Y-86314158D01*
X111093494Y-86128597D01*
X110926402Y-85961506D01*
X110926395Y-85961501D01*
X110732834Y-85825967D01*
X110732830Y-85825965D01*
X110661727Y-85792809D01*
X110518663Y-85726097D01*
X110518659Y-85726096D01*
X110518655Y-85726094D01*
X110290413Y-85664938D01*
X110290403Y-85664936D01*
X110055001Y-85644341D01*
X110054999Y-85644341D01*
X109819596Y-85664936D01*
X109819586Y-85664938D01*
X109591344Y-85726094D01*
X109591335Y-85726098D01*
X109377171Y-85825964D01*
X109377169Y-85825965D01*
X109183597Y-85961505D01*
X109016505Y-86128597D01*
X108886575Y-86314158D01*
X108831998Y-86357783D01*
X108762500Y-86364977D01*
X108700145Y-86333454D01*
X108683425Y-86314158D01*
X108553494Y-86128597D01*
X108386402Y-85961506D01*
X108386395Y-85961501D01*
X108192834Y-85825967D01*
X108192830Y-85825965D01*
X108121727Y-85792809D01*
X107978663Y-85726097D01*
X107978659Y-85726096D01*
X107978655Y-85726094D01*
X107750413Y-85664938D01*
X107750403Y-85664936D01*
X107515001Y-85644341D01*
X107514999Y-85644341D01*
X107279596Y-85664936D01*
X107279586Y-85664938D01*
X107051344Y-85726094D01*
X107051335Y-85726098D01*
X106837171Y-85825964D01*
X106837169Y-85825965D01*
X106643600Y-85961503D01*
X106521284Y-86083819D01*
X106459961Y-86117303D01*
X106390269Y-86112319D01*
X106334336Y-86070447D01*
X106317421Y-86039470D01*
X106268354Y-85907913D01*
X106268350Y-85907906D01*
X106182190Y-85792812D01*
X106182187Y-85792809D01*
X106067093Y-85706649D01*
X106067086Y-85706645D01*
X105932379Y-85656403D01*
X105932372Y-85656401D01*
X105872844Y-85650000D01*
X105225000Y-85650000D01*
X105225000Y-86566988D01*
X105167993Y-86534075D01*
X105040826Y-86500000D01*
X104909174Y-86500000D01*
X104782007Y-86534075D01*
X104725000Y-86566988D01*
X104725000Y-85650000D01*
X104077155Y-85650000D01*
X104017627Y-85656401D01*
X104017620Y-85656403D01*
X103882913Y-85706645D01*
X103882906Y-85706649D01*
X103767812Y-85792809D01*
X103767809Y-85792812D01*
X103681649Y-85907906D01*
X103681645Y-85907913D01*
X103631403Y-86042620D01*
X103631401Y-86042627D01*
X103625000Y-86102155D01*
X101873482Y-86102155D01*
X101995459Y-85866750D01*
X102094896Y-85586962D01*
X102094897Y-85586955D01*
X102094899Y-85586950D01*
X102122942Y-85451994D01*
X102155309Y-85296240D01*
X102175572Y-85000000D01*
X102155309Y-84703760D01*
X102129078Y-84577528D01*
X102094899Y-84413049D01*
X102094894Y-84413032D01*
X101995460Y-84133253D01*
X101995461Y-84133253D01*
X101858850Y-83869606D01*
X101858846Y-83869600D01*
X101687621Y-83627029D01*
X101687617Y-83627025D01*
X101687616Y-83627023D01*
X101484944Y-83410014D01*
X101484937Y-83410009D01*
X101484936Y-83410007D01*
X101254606Y-83222620D01*
X101000903Y-83068340D01*
X101000898Y-83068338D01*
X100728559Y-82950045D01*
X100442638Y-82869933D01*
X100442634Y-82869932D01*
X100442633Y-82869932D01*
X100295549Y-82849716D01*
X100148467Y-82829500D01*
X100148466Y-82829500D01*
X99851534Y-82829500D01*
X99851533Y-82829500D01*
X99557367Y-82869932D01*
X99557361Y-82869933D01*
X99271440Y-82950045D01*
X98999101Y-83068338D01*
X98999096Y-83068340D01*
X98745393Y-83222620D01*
X98515063Y-83410007D01*
X98312378Y-83627029D01*
X98141153Y-83869600D01*
X98141149Y-83869606D01*
X98004539Y-84133253D01*
X97905105Y-84413032D01*
X97905100Y-84413049D01*
X97844691Y-84703757D01*
X97844690Y-84703759D01*
X97824428Y-85000000D01*
X95500500Y-85000000D01*
X95500500Y-80624500D01*
X95520185Y-80557461D01*
X95572989Y-80511706D01*
X95624500Y-80500500D01*
X114876000Y-80500500D01*
X114943039Y-80520185D01*
G37*
%TD.AperFunction*%
%TD*%
M02*
