%TF.GenerationSoftware,KiCad,Pcbnew,8.0.9-8.0.9-0~ubuntu24.04.1*%
%TF.CreationDate,2025-04-02T15:18:24+09:00*%
%TF.ProjectId,ServoDriver,53657276-6f44-4726-9976-65722e6b6963,rev?*%
%TF.SameCoordinates,Original*%
%TF.FileFunction,Paste,Top*%
%TF.FilePolarity,Positive*%
%FSLAX46Y46*%
G04 Gerber Fmt 4.6, Leading zero omitted, Abs format (unit mm)*
G04 Created by KiCad (PCBNEW 8.0.9-8.0.9-0~ubuntu24.04.1) date 2025-04-02 15:18:24*
%MOMM*%
%LPD*%
G01*
G04 APERTURE LIST*
G04 Aperture macros list*
%AMRoundRect*
0 Rectangle with rounded corners*
0 $1 Rounding radius*
0 $2 $3 $4 $5 $6 $7 $8 $9 X,Y pos of 4 corners*
0 Add a 4 corners polygon primitive as box body*
4,1,4,$2,$3,$4,$5,$6,$7,$8,$9,$2,$3,0*
0 Add four circle primitives for the rounded corners*
1,1,$1+$1,$2,$3*
1,1,$1+$1,$4,$5*
1,1,$1+$1,$6,$7*
1,1,$1+$1,$8,$9*
0 Add four rect primitives between the rounded corners*
20,1,$1+$1,$2,$3,$4,$5,0*
20,1,$1+$1,$4,$5,$6,$7,0*
20,1,$1+$1,$6,$7,$8,$9,0*
20,1,$1+$1,$8,$9,$2,$3,0*%
G04 Aperture macros list end*
%ADD10RoundRect,0.250000X0.850000X0.350000X-0.850000X0.350000X-0.850000X-0.350000X0.850000X-0.350000X0*%
%ADD11RoundRect,0.250000X1.275000X1.125000X-1.275000X1.125000X-1.275000X-1.125000X1.275000X-1.125000X0*%
%ADD12RoundRect,0.125000X-0.125000X0.625000X-0.125000X-0.625000X0.125000X-0.625000X0.125000X0.625000X0*%
%ADD13RoundRect,0.125000X-0.625000X0.125000X-0.625000X-0.125000X0.625000X-0.125000X0.625000X0.125000X0*%
G04 APERTURE END LIST*
D10*
%TO.C,U1*%
X105040000Y-137280000D03*
D11*
X100415000Y-136525000D03*
X100415000Y-133475000D03*
X97065000Y-136525000D03*
X97065000Y-133475000D03*
D10*
X105040000Y-132720000D03*
%TD*%
D12*
%TO.C,U3*%
X129325000Y-112850000D03*
X128525000Y-112850000D03*
X127725000Y-112850000D03*
X126925000Y-112850000D03*
X126125000Y-112850000D03*
X125325000Y-112850000D03*
X124525000Y-112850000D03*
X123725000Y-112850000D03*
D13*
X122350000Y-114225000D03*
X122350000Y-115025000D03*
X122350000Y-115825000D03*
X122350000Y-116625000D03*
X122350000Y-117425000D03*
X122350000Y-118225000D03*
X122350000Y-119025000D03*
X122350000Y-119825000D03*
D12*
X123725000Y-121200000D03*
X124525000Y-121200000D03*
X125325000Y-121200000D03*
X126125000Y-121200000D03*
X126925000Y-121200000D03*
X127725000Y-121200000D03*
X128525000Y-121200000D03*
X129325000Y-121200000D03*
D13*
X130700000Y-119825000D03*
X130700000Y-119025000D03*
X130700000Y-118225000D03*
X130700000Y-117425000D03*
X130700000Y-116625000D03*
X130700000Y-115825000D03*
X130700000Y-115025000D03*
X130700000Y-114225000D03*
%TD*%
D10*
%TO.C,U5*%
X117040000Y-137280000D03*
D11*
X112415000Y-136525000D03*
X112415000Y-133475000D03*
X109065000Y-136525000D03*
X109065000Y-133475000D03*
D10*
X117040000Y-132720000D03*
%TD*%
M02*
