%TF.GenerationSoftware,KiCad,Pcbnew,8.0.9-8.0.9-0~ubuntu24.04.1*%
%TF.CreationDate,2025-04-02T15:18:25+09:00*%
%TF.ProjectId,ServoDriver,53657276-6f44-4726-9976-65722e6b6963,rev?*%
%TF.SameCoordinates,Original*%
%TF.FileFunction,Profile,NP*%
%FSLAX46Y46*%
G04 Gerber Fmt 4.6, Leading zero omitted, Abs format (unit mm)*
G04 Created by KiCad (PCBNEW 8.0.9-8.0.9-0~ubuntu24.04.1) date 2025-04-02 15:18:25*
%MOMM*%
%LPD*%
G01*
G04 APERTURE LIST*
%TA.AperFunction,Profile*%
%ADD10C,0.050000*%
%TD*%
%ADD11C,0.150000*%
G04 APERTURE END LIST*
D10*
X101670000Y-85000000D02*
G75*
G02*
X98330000Y-85000000I-1670000J0D01*
G01*
X98330000Y-85000000D02*
G75*
G02*
X101670000Y-85000000I1670000J0D01*
G01*
X131670000Y-85000000D02*
G75*
G02*
X128330000Y-85000000I-1670000J0D01*
G01*
X128330000Y-85000000D02*
G75*
G02*
X131670000Y-85000000I1670000J0D01*
G01*
X95000000Y-80000000D02*
X135000000Y-80000000D01*
X135000000Y-160000000D01*
X95000000Y-160000000D01*
X95000000Y-80000000D01*
X131670000Y-155000000D02*
G75*
G02*
X128330000Y-155000000I-1670000J0D01*
G01*
X128330000Y-155000000D02*
G75*
G02*
X131670000Y-155000000I1670000J0D01*
G01*
X101670000Y-155000000D02*
G75*
G02*
X98330000Y-155000000I-1670000J0D01*
G01*
X98330000Y-155000000D02*
G75*
G02*
X101670000Y-155000000I1670000J0D01*
G01*
D11*
X110857143Y-163413152D02*
X110857143Y-164079819D01*
X110619048Y-163032200D02*
X110380953Y-163746485D01*
X110380953Y-163746485D02*
X111000000Y-163746485D01*
X111571429Y-163079819D02*
X111666667Y-163079819D01*
X111666667Y-163079819D02*
X111761905Y-163127438D01*
X111761905Y-163127438D02*
X111809524Y-163175057D01*
X111809524Y-163175057D02*
X111857143Y-163270295D01*
X111857143Y-163270295D02*
X111904762Y-163460771D01*
X111904762Y-163460771D02*
X111904762Y-163698866D01*
X111904762Y-163698866D02*
X111857143Y-163889342D01*
X111857143Y-163889342D02*
X111809524Y-163984580D01*
X111809524Y-163984580D02*
X111761905Y-164032200D01*
X111761905Y-164032200D02*
X111666667Y-164079819D01*
X111666667Y-164079819D02*
X111571429Y-164079819D01*
X111571429Y-164079819D02*
X111476191Y-164032200D01*
X111476191Y-164032200D02*
X111428572Y-163984580D01*
X111428572Y-163984580D02*
X111380953Y-163889342D01*
X111380953Y-163889342D02*
X111333334Y-163698866D01*
X111333334Y-163698866D02*
X111333334Y-163460771D01*
X111333334Y-163460771D02*
X111380953Y-163270295D01*
X111380953Y-163270295D02*
X111428572Y-163175057D01*
X111428572Y-163175057D02*
X111476191Y-163127438D01*
X111476191Y-163127438D02*
X111571429Y-163079819D01*
X112333334Y-163984580D02*
X112380953Y-164032200D01*
X112380953Y-164032200D02*
X112333334Y-164079819D01*
X112333334Y-164079819D02*
X112285715Y-164032200D01*
X112285715Y-164032200D02*
X112333334Y-163984580D01*
X112333334Y-163984580D02*
X112333334Y-164079819D01*
X113000000Y-163079819D02*
X113095238Y-163079819D01*
X113095238Y-163079819D02*
X113190476Y-163127438D01*
X113190476Y-163127438D02*
X113238095Y-163175057D01*
X113238095Y-163175057D02*
X113285714Y-163270295D01*
X113285714Y-163270295D02*
X113333333Y-163460771D01*
X113333333Y-163460771D02*
X113333333Y-163698866D01*
X113333333Y-163698866D02*
X113285714Y-163889342D01*
X113285714Y-163889342D02*
X113238095Y-163984580D01*
X113238095Y-163984580D02*
X113190476Y-164032200D01*
X113190476Y-164032200D02*
X113095238Y-164079819D01*
X113095238Y-164079819D02*
X113000000Y-164079819D01*
X113000000Y-164079819D02*
X112904762Y-164032200D01*
X112904762Y-164032200D02*
X112857143Y-163984580D01*
X112857143Y-163984580D02*
X112809524Y-163889342D01*
X112809524Y-163889342D02*
X112761905Y-163698866D01*
X112761905Y-163698866D02*
X112761905Y-163460771D01*
X112761905Y-163460771D02*
X112809524Y-163270295D01*
X112809524Y-163270295D02*
X112857143Y-163175057D01*
X112857143Y-163175057D02*
X112904762Y-163127438D01*
X112904762Y-163127438D02*
X113000000Y-163079819D01*
X113952381Y-163079819D02*
X114047619Y-163079819D01*
X114047619Y-163079819D02*
X114142857Y-163127438D01*
X114142857Y-163127438D02*
X114190476Y-163175057D01*
X114190476Y-163175057D02*
X114238095Y-163270295D01*
X114238095Y-163270295D02*
X114285714Y-163460771D01*
X114285714Y-163460771D02*
X114285714Y-163698866D01*
X114285714Y-163698866D02*
X114238095Y-163889342D01*
X114238095Y-163889342D02*
X114190476Y-163984580D01*
X114190476Y-163984580D02*
X114142857Y-164032200D01*
X114142857Y-164032200D02*
X114047619Y-164079819D01*
X114047619Y-164079819D02*
X113952381Y-164079819D01*
X113952381Y-164079819D02*
X113857143Y-164032200D01*
X113857143Y-164032200D02*
X113809524Y-163984580D01*
X113809524Y-163984580D02*
X113761905Y-163889342D01*
X113761905Y-163889342D02*
X113714286Y-163698866D01*
X113714286Y-163698866D02*
X113714286Y-163460771D01*
X113714286Y-163460771D02*
X113761905Y-163270295D01*
X113761905Y-163270295D02*
X113809524Y-163175057D01*
X113809524Y-163175057D02*
X113857143Y-163127438D01*
X113857143Y-163127438D02*
X113952381Y-163079819D01*
X114904762Y-163079819D02*
X115000000Y-163079819D01*
X115000000Y-163079819D02*
X115095238Y-163127438D01*
X115095238Y-163127438D02*
X115142857Y-163175057D01*
X115142857Y-163175057D02*
X115190476Y-163270295D01*
X115190476Y-163270295D02*
X115238095Y-163460771D01*
X115238095Y-163460771D02*
X115238095Y-163698866D01*
X115238095Y-163698866D02*
X115190476Y-163889342D01*
X115190476Y-163889342D02*
X115142857Y-163984580D01*
X115142857Y-163984580D02*
X115095238Y-164032200D01*
X115095238Y-164032200D02*
X115000000Y-164079819D01*
X115000000Y-164079819D02*
X114904762Y-164079819D01*
X114904762Y-164079819D02*
X114809524Y-164032200D01*
X114809524Y-164032200D02*
X114761905Y-163984580D01*
X114761905Y-163984580D02*
X114714286Y-163889342D01*
X114714286Y-163889342D02*
X114666667Y-163698866D01*
X114666667Y-163698866D02*
X114666667Y-163460771D01*
X114666667Y-163460771D02*
X114714286Y-163270295D01*
X114714286Y-163270295D02*
X114761905Y-163175057D01*
X114761905Y-163175057D02*
X114809524Y-163127438D01*
X114809524Y-163127438D02*
X114904762Y-163079819D01*
X115857143Y-163079819D02*
X115952381Y-163079819D01*
X115952381Y-163079819D02*
X116047619Y-163127438D01*
X116047619Y-163127438D02*
X116095238Y-163175057D01*
X116095238Y-163175057D02*
X116142857Y-163270295D01*
X116142857Y-163270295D02*
X116190476Y-163460771D01*
X116190476Y-163460771D02*
X116190476Y-163698866D01*
X116190476Y-163698866D02*
X116142857Y-163889342D01*
X116142857Y-163889342D02*
X116095238Y-163984580D01*
X116095238Y-163984580D02*
X116047619Y-164032200D01*
X116047619Y-164032200D02*
X115952381Y-164079819D01*
X115952381Y-164079819D02*
X115857143Y-164079819D01*
X115857143Y-164079819D02*
X115761905Y-164032200D01*
X115761905Y-164032200D02*
X115714286Y-163984580D01*
X115714286Y-163984580D02*
X115666667Y-163889342D01*
X115666667Y-163889342D02*
X115619048Y-163698866D01*
X115619048Y-163698866D02*
X115619048Y-163460771D01*
X115619048Y-163460771D02*
X115666667Y-163270295D01*
X115666667Y-163270295D02*
X115714286Y-163175057D01*
X115714286Y-163175057D02*
X115761905Y-163127438D01*
X115761905Y-163127438D02*
X115857143Y-163079819D01*
X117380953Y-164079819D02*
X117380953Y-163413152D01*
X117380953Y-163508390D02*
X117428572Y-163460771D01*
X117428572Y-163460771D02*
X117523810Y-163413152D01*
X117523810Y-163413152D02*
X117666667Y-163413152D01*
X117666667Y-163413152D02*
X117761905Y-163460771D01*
X117761905Y-163460771D02*
X117809524Y-163556009D01*
X117809524Y-163556009D02*
X117809524Y-164079819D01*
X117809524Y-163556009D02*
X117857143Y-163460771D01*
X117857143Y-163460771D02*
X117952381Y-163413152D01*
X117952381Y-163413152D02*
X118095238Y-163413152D01*
X118095238Y-163413152D02*
X118190477Y-163460771D01*
X118190477Y-163460771D02*
X118238096Y-163556009D01*
X118238096Y-163556009D02*
X118238096Y-164079819D01*
X118714286Y-164079819D02*
X118714286Y-163413152D01*
X118714286Y-163508390D02*
X118761905Y-163460771D01*
X118761905Y-163460771D02*
X118857143Y-163413152D01*
X118857143Y-163413152D02*
X119000000Y-163413152D01*
X119000000Y-163413152D02*
X119095238Y-163460771D01*
X119095238Y-163460771D02*
X119142857Y-163556009D01*
X119142857Y-163556009D02*
X119142857Y-164079819D01*
X119142857Y-163556009D02*
X119190476Y-163460771D01*
X119190476Y-163460771D02*
X119285714Y-163413152D01*
X119285714Y-163413152D02*
X119428571Y-163413152D01*
X119428571Y-163413152D02*
X119523810Y-163460771D01*
X119523810Y-163460771D02*
X119571429Y-163556009D01*
X119571429Y-163556009D02*
X119571429Y-164079819D01*
D10*
X95000000Y-160500000D02*
X95000000Y-165361420D01*
X135000000Y-160500000D02*
X135000000Y-165361420D01*
X95000000Y-164775000D02*
X135000000Y-164775000D01*
X95000000Y-164775000D02*
X135000000Y-164775000D01*
X95000000Y-164775000D02*
X96126504Y-164188579D01*
X95000000Y-164775000D02*
X96126504Y-165361421D01*
X135000000Y-164775000D02*
X133873496Y-165361421D01*
X135000000Y-164775000D02*
X133873496Y-164188579D01*
D11*
X89833390Y-124428570D02*
X89785771Y-124523808D01*
X89785771Y-124523808D02*
X89738152Y-124571427D01*
X89738152Y-124571427D02*
X89642914Y-124619046D01*
X89642914Y-124619046D02*
X89595295Y-124619046D01*
X89595295Y-124619046D02*
X89500057Y-124571427D01*
X89500057Y-124571427D02*
X89452438Y-124523808D01*
X89452438Y-124523808D02*
X89404819Y-124428570D01*
X89404819Y-124428570D02*
X89404819Y-124238094D01*
X89404819Y-124238094D02*
X89452438Y-124142856D01*
X89452438Y-124142856D02*
X89500057Y-124095237D01*
X89500057Y-124095237D02*
X89595295Y-124047618D01*
X89595295Y-124047618D02*
X89642914Y-124047618D01*
X89642914Y-124047618D02*
X89738152Y-124095237D01*
X89738152Y-124095237D02*
X89785771Y-124142856D01*
X89785771Y-124142856D02*
X89833390Y-124238094D01*
X89833390Y-124238094D02*
X89833390Y-124428570D01*
X89833390Y-124428570D02*
X89881009Y-124523808D01*
X89881009Y-124523808D02*
X89928628Y-124571427D01*
X89928628Y-124571427D02*
X90023866Y-124619046D01*
X90023866Y-124619046D02*
X90214342Y-124619046D01*
X90214342Y-124619046D02*
X90309580Y-124571427D01*
X90309580Y-124571427D02*
X90357200Y-124523808D01*
X90357200Y-124523808D02*
X90404819Y-124428570D01*
X90404819Y-124428570D02*
X90404819Y-124238094D01*
X90404819Y-124238094D02*
X90357200Y-124142856D01*
X90357200Y-124142856D02*
X90309580Y-124095237D01*
X90309580Y-124095237D02*
X90214342Y-124047618D01*
X90214342Y-124047618D02*
X90023866Y-124047618D01*
X90023866Y-124047618D02*
X89928628Y-124095237D01*
X89928628Y-124095237D02*
X89881009Y-124142856D01*
X89881009Y-124142856D02*
X89833390Y-124238094D01*
X89404819Y-123428570D02*
X89404819Y-123333332D01*
X89404819Y-123333332D02*
X89452438Y-123238094D01*
X89452438Y-123238094D02*
X89500057Y-123190475D01*
X89500057Y-123190475D02*
X89595295Y-123142856D01*
X89595295Y-123142856D02*
X89785771Y-123095237D01*
X89785771Y-123095237D02*
X90023866Y-123095237D01*
X90023866Y-123095237D02*
X90214342Y-123142856D01*
X90214342Y-123142856D02*
X90309580Y-123190475D01*
X90309580Y-123190475D02*
X90357200Y-123238094D01*
X90357200Y-123238094D02*
X90404819Y-123333332D01*
X90404819Y-123333332D02*
X90404819Y-123428570D01*
X90404819Y-123428570D02*
X90357200Y-123523808D01*
X90357200Y-123523808D02*
X90309580Y-123571427D01*
X90309580Y-123571427D02*
X90214342Y-123619046D01*
X90214342Y-123619046D02*
X90023866Y-123666665D01*
X90023866Y-123666665D02*
X89785771Y-123666665D01*
X89785771Y-123666665D02*
X89595295Y-123619046D01*
X89595295Y-123619046D02*
X89500057Y-123571427D01*
X89500057Y-123571427D02*
X89452438Y-123523808D01*
X89452438Y-123523808D02*
X89404819Y-123428570D01*
X90309580Y-122666665D02*
X90357200Y-122619046D01*
X90357200Y-122619046D02*
X90404819Y-122666665D01*
X90404819Y-122666665D02*
X90357200Y-122714284D01*
X90357200Y-122714284D02*
X90309580Y-122666665D01*
X90309580Y-122666665D02*
X90404819Y-122666665D01*
X89404819Y-121999999D02*
X89404819Y-121904761D01*
X89404819Y-121904761D02*
X89452438Y-121809523D01*
X89452438Y-121809523D02*
X89500057Y-121761904D01*
X89500057Y-121761904D02*
X89595295Y-121714285D01*
X89595295Y-121714285D02*
X89785771Y-121666666D01*
X89785771Y-121666666D02*
X90023866Y-121666666D01*
X90023866Y-121666666D02*
X90214342Y-121714285D01*
X90214342Y-121714285D02*
X90309580Y-121761904D01*
X90309580Y-121761904D02*
X90357200Y-121809523D01*
X90357200Y-121809523D02*
X90404819Y-121904761D01*
X90404819Y-121904761D02*
X90404819Y-121999999D01*
X90404819Y-121999999D02*
X90357200Y-122095237D01*
X90357200Y-122095237D02*
X90309580Y-122142856D01*
X90309580Y-122142856D02*
X90214342Y-122190475D01*
X90214342Y-122190475D02*
X90023866Y-122238094D01*
X90023866Y-122238094D02*
X89785771Y-122238094D01*
X89785771Y-122238094D02*
X89595295Y-122190475D01*
X89595295Y-122190475D02*
X89500057Y-122142856D01*
X89500057Y-122142856D02*
X89452438Y-122095237D01*
X89452438Y-122095237D02*
X89404819Y-121999999D01*
X89404819Y-121047618D02*
X89404819Y-120952380D01*
X89404819Y-120952380D02*
X89452438Y-120857142D01*
X89452438Y-120857142D02*
X89500057Y-120809523D01*
X89500057Y-120809523D02*
X89595295Y-120761904D01*
X89595295Y-120761904D02*
X89785771Y-120714285D01*
X89785771Y-120714285D02*
X90023866Y-120714285D01*
X90023866Y-120714285D02*
X90214342Y-120761904D01*
X90214342Y-120761904D02*
X90309580Y-120809523D01*
X90309580Y-120809523D02*
X90357200Y-120857142D01*
X90357200Y-120857142D02*
X90404819Y-120952380D01*
X90404819Y-120952380D02*
X90404819Y-121047618D01*
X90404819Y-121047618D02*
X90357200Y-121142856D01*
X90357200Y-121142856D02*
X90309580Y-121190475D01*
X90309580Y-121190475D02*
X90214342Y-121238094D01*
X90214342Y-121238094D02*
X90023866Y-121285713D01*
X90023866Y-121285713D02*
X89785771Y-121285713D01*
X89785771Y-121285713D02*
X89595295Y-121238094D01*
X89595295Y-121238094D02*
X89500057Y-121190475D01*
X89500057Y-121190475D02*
X89452438Y-121142856D01*
X89452438Y-121142856D02*
X89404819Y-121047618D01*
X89404819Y-120095237D02*
X89404819Y-119999999D01*
X89404819Y-119999999D02*
X89452438Y-119904761D01*
X89452438Y-119904761D02*
X89500057Y-119857142D01*
X89500057Y-119857142D02*
X89595295Y-119809523D01*
X89595295Y-119809523D02*
X89785771Y-119761904D01*
X89785771Y-119761904D02*
X90023866Y-119761904D01*
X90023866Y-119761904D02*
X90214342Y-119809523D01*
X90214342Y-119809523D02*
X90309580Y-119857142D01*
X90309580Y-119857142D02*
X90357200Y-119904761D01*
X90357200Y-119904761D02*
X90404819Y-119999999D01*
X90404819Y-119999999D02*
X90404819Y-120095237D01*
X90404819Y-120095237D02*
X90357200Y-120190475D01*
X90357200Y-120190475D02*
X90309580Y-120238094D01*
X90309580Y-120238094D02*
X90214342Y-120285713D01*
X90214342Y-120285713D02*
X90023866Y-120333332D01*
X90023866Y-120333332D02*
X89785771Y-120333332D01*
X89785771Y-120333332D02*
X89595295Y-120285713D01*
X89595295Y-120285713D02*
X89500057Y-120238094D01*
X89500057Y-120238094D02*
X89452438Y-120190475D01*
X89452438Y-120190475D02*
X89404819Y-120095237D01*
X89404819Y-119142856D02*
X89404819Y-119047618D01*
X89404819Y-119047618D02*
X89452438Y-118952380D01*
X89452438Y-118952380D02*
X89500057Y-118904761D01*
X89500057Y-118904761D02*
X89595295Y-118857142D01*
X89595295Y-118857142D02*
X89785771Y-118809523D01*
X89785771Y-118809523D02*
X90023866Y-118809523D01*
X90023866Y-118809523D02*
X90214342Y-118857142D01*
X90214342Y-118857142D02*
X90309580Y-118904761D01*
X90309580Y-118904761D02*
X90357200Y-118952380D01*
X90357200Y-118952380D02*
X90404819Y-119047618D01*
X90404819Y-119047618D02*
X90404819Y-119142856D01*
X90404819Y-119142856D02*
X90357200Y-119238094D01*
X90357200Y-119238094D02*
X90309580Y-119285713D01*
X90309580Y-119285713D02*
X90214342Y-119333332D01*
X90214342Y-119333332D02*
X90023866Y-119380951D01*
X90023866Y-119380951D02*
X89785771Y-119380951D01*
X89785771Y-119380951D02*
X89595295Y-119333332D01*
X89595295Y-119333332D02*
X89500057Y-119285713D01*
X89500057Y-119285713D02*
X89452438Y-119238094D01*
X89452438Y-119238094D02*
X89404819Y-119142856D01*
X90404819Y-117619046D02*
X89738152Y-117619046D01*
X89833390Y-117619046D02*
X89785771Y-117571427D01*
X89785771Y-117571427D02*
X89738152Y-117476189D01*
X89738152Y-117476189D02*
X89738152Y-117333332D01*
X89738152Y-117333332D02*
X89785771Y-117238094D01*
X89785771Y-117238094D02*
X89881009Y-117190475D01*
X89881009Y-117190475D02*
X90404819Y-117190475D01*
X89881009Y-117190475D02*
X89785771Y-117142856D01*
X89785771Y-117142856D02*
X89738152Y-117047618D01*
X89738152Y-117047618D02*
X89738152Y-116904761D01*
X89738152Y-116904761D02*
X89785771Y-116809522D01*
X89785771Y-116809522D02*
X89881009Y-116761903D01*
X89881009Y-116761903D02*
X90404819Y-116761903D01*
X90404819Y-116285713D02*
X89738152Y-116285713D01*
X89833390Y-116285713D02*
X89785771Y-116238094D01*
X89785771Y-116238094D02*
X89738152Y-116142856D01*
X89738152Y-116142856D02*
X89738152Y-115999999D01*
X89738152Y-115999999D02*
X89785771Y-115904761D01*
X89785771Y-115904761D02*
X89881009Y-115857142D01*
X89881009Y-115857142D02*
X90404819Y-115857142D01*
X89881009Y-115857142D02*
X89785771Y-115809523D01*
X89785771Y-115809523D02*
X89738152Y-115714285D01*
X89738152Y-115714285D02*
X89738152Y-115571428D01*
X89738152Y-115571428D02*
X89785771Y-115476189D01*
X89785771Y-115476189D02*
X89881009Y-115428570D01*
X89881009Y-115428570D02*
X90404819Y-115428570D01*
D10*
X94500000Y-160000000D02*
X90513580Y-160000000D01*
X94500000Y-80000000D02*
X90513580Y-80000000D01*
X91100000Y-160000000D02*
X91100000Y-80000000D01*
X91100000Y-160000000D02*
X91100000Y-80000000D01*
X91100000Y-160000000D02*
X90513579Y-158873496D01*
X91100000Y-160000000D02*
X91686421Y-158873496D01*
X91100000Y-80000000D02*
X91686421Y-81126504D01*
X91100000Y-80000000D02*
X90513579Y-81126504D01*
M02*
