M48
; DRILL file {KiCad 8.0.9-8.0.9-0~ubuntu24.04.1} date 2025-04-02T15:18:27+0900
; FORMAT={-:-/ absolute / inch / decimal}
; #@! TF.CreationDate,2025-04-02T15:18:27+09:00
; #@! TF.GenerationSoftware,Kicad,Pcbnew,8.0.9-8.0.9-0~ubuntu24.04.1
; #@! TF.FileFunction,Plated,1,2,PTH
FMAT,2
INCH
; #@! TA.AperFunction,Plated,PTH,ComponentDrill
T1C0.0315
; #@! TA.AperFunction,Plated,PTH,ComponentDrill
T2C0.0354
; #@! TA.AperFunction,Plated,PTH,ComponentDrill
T3C0.0394
; #@! TA.AperFunction,Plated,PTH,ComponentDrill
T4C0.0748
%
G90
G05
T1
X3.8583Y-4.0157
X3.8583Y-4.4157
X3.8583Y-4.5276
X3.8583Y-4.9276
X3.9358Y-3.7982
X4.0157Y-4.0157
X4.0157Y-4.4157
X4.0157Y-4.5276
X4.0157Y-4.9276
X4.0354Y-5.1181
X4.0354Y-5.5118
X4.1339Y-5.1181
X4.1339Y-5.5118
X4.252Y-4.0157
X4.252Y-4.4157
X4.252Y-4.5276
X4.252Y-4.9276
X4.3358Y-3.7982
X4.4094Y-4.0157
X4.4094Y-4.4157
X4.4094Y-4.5276
X4.4094Y-4.9276
X4.5079Y-5.1181
X4.5079Y-5.5118
X4.6063Y-5.1181
X4.6063Y-5.5118
X4.6378Y-3.5106
X4.6378Y-3.9106
X4.6388Y-4.5104
X4.6388Y-4.9104
X4.6533Y-5.6978
X4.8159Y-5.5207
X4.9138Y-5.122
X4.9138Y-5.422
X4.9144Y-5.5207
X4.9331Y-4.0787
X4.9331Y-4.1772
X5.0138Y-5.122
X5.0138Y-5.422
X5.0157Y-5.0246
X5.0533Y-5.6978
X5.1138Y-5.122
X5.1138Y-5.422
X5.1142Y-5.0246
X5.1343Y-4.9055
X5.1744Y-4.0024
X5.1744Y-4.4024
X5.1772Y-3.5748
X5.1772Y-3.6732
X5.2138Y-5.122
X5.2138Y-5.422
X5.2327Y-4.9055
T2
X3.936Y-3.5728
X3.936Y-3.6728
X4.7669Y-3.5846
X4.8004Y-4.9104
X4.8669Y-3.5846
X4.9004Y-4.9104
T3
X4.0669Y-6.127
X4.1329Y-3.4252
X4.2329Y-3.4252
X4.3329Y-3.4252
X4.5Y-6.127
X4.5669Y-3.4252
X4.6669Y-3.4252
X4.7293Y-5.8829
X4.7618Y-4.0797
X4.7618Y-4.1781
X4.7618Y-4.2766
X4.7669Y-3.4252
X4.8278Y-5.8829
X4.8669Y-3.4252
X4.877Y-3.7864
X4.877Y-3.8864
X4.9669Y-3.4252
T4
X4.185Y-5.7333
X4.3819Y-5.7333
M30
